<svg width="1261" height="377" viewBox="0 0 1261 377" fill="none" xmlns="http://www.w3.org/2000/svg">
<mask id="mask0_34_10" style="mask-type:alpha" maskUnits="userSpaceOnUse" x="0" y="0" width="1261" height="377">
<rect width="1261" height="377" fill="white"/>
</mask>
<g mask="url(#mask0_34_10)">
<path d="M1261 -217H0V537H1261V-217Z" fill="url(#paint0_radial_34_10)"/>
<path fill-rule="evenodd" clip-rule="evenodd" d="M1001 13.5C1001 40.5243 989.559 64.7869 971.214 81.9483C962.535 90.0359 952.08 96.5454 940.639 100.885C930.382 104.83 919.138 107 907.5 107C903.358 107 899.215 106.803 895.27 106.211C877.32 103.844 860.75 96.3481 847.534 85.1044C837.868 77.0169 829.781 66.9568 824.06 55.7131C820.509 48.6118 817.748 40.9188 815.973 32.8313C814.592 26.519 814 20.2068 814 13.5C814 -5.04218 819.326 -22.2036 828.597 -36.6034C832.542 -42.7183 837.079 -48.4388 842.405 -53.3702C859.172 -69.7426 882.251 -79.8027 907.5 -79.8027C909.473 -79.8027 911.642 -79.8027 913.615 -79.6055C924.267 -79.0137 934.327 -76.4494 943.795 -72.5042C945.373 -71.9124 946.951 -71.1234 948.53 -70.3344C957.603 -65.9947 965.888 -60.077 972.989 -52.9757C990.348 -36.2088 1001 -12.538 1001 13.5Z" fill="url(#paint1_radial_34_10)"/>
<path fill-rule="evenodd" clip-rule="evenodd" d="M858.186 75.4389C850.295 75.4389 835.896 63.9979 828.992 49.4009C820.509 31.0559 820.312 11.7247 824.455 8.17407C825.638 7.18779 827.216 6.59601 829.189 6.59601C830.372 6.59601 831.95 6.79327 833.331 7.18779C843.194 10.1466 857.002 23.7574 862.92 37.5654C868.64 50.9789 867.062 61.6308 865.287 68.1403C864.103 74.2553 860.75 75.4389 858.186 75.4389Z" fill="url(#paint2_linear_34_10)"/>
<path fill-rule="evenodd" clip-rule="evenodd" d="M864.104 67.7458C863.117 71.4937 861.342 73.8608 858.186 73.8608C851.479 73.8608 837.277 63.2089 830.57 48.6118C821.89 30.2669 822.482 12.1192 825.638 9.35762C827.216 7.97682 829.978 7.77955 833.134 8.76584C843.194 11.7247 858.383 24.5464 861.539 37.9599C864.498 49.2036 865.879 61.0391 864.104 67.7458Z" fill="url(#paint3_linear_34_10)"/>
<path fill-rule="evenodd" clip-rule="evenodd" d="M831.753 0.48107C830.767 0.48107 829.781 0.0865578 829.189 -0.702472C826.624 -3.66133 830.372 -14.116 831.95 -17.8639C834.515 -23.7816 837.276 -26.9377 839.643 -26.9377C840.63 -26.9377 841.419 -26.5432 842.208 -25.9514L842.602 -25.5569C845.364 -22.7953 846.745 -16.2858 844.18 -11.1571C842.208 -7.40923 836.487 -0.899726 832.542 0.0865608C832.542 0.481076 832.148 0.48107 831.753 0.48107Z" fill="url(#paint4_linear_34_10)"/>
<path fill-rule="evenodd" clip-rule="evenodd" d="M963.916 73.0718C960.76 73.0718 958.393 71.8882 957.406 69.5211C955.434 65.1815 956.42 49.2036 962.732 35.1983C972.003 14.289 985.022 8.76584 990.348 8.76584C990.743 8.76584 991.137 8.76584 991.335 8.76584C991.532 8.76584 991.729 8.76585 991.926 8.96311C993.307 9.35762 994.688 10.5412 995.477 12.3165C999.225 20.0095 997.055 38.9462 990.94 52.1625C985.614 64.5897 972.398 73.0718 963.916 73.0718Z" fill="url(#paint5_linear_34_10)"/>
<path fill-rule="evenodd" clip-rule="evenodd" d="M989.756 51.7679C982.26 67.943 962.337 76.0306 958.984 68.9293C957.209 65.3787 957.998 50.1899 964.31 35.9873C973.778 14.8808 986.797 9.94934 991.334 10.5411H991.531C998.041 12.3164 997.055 35.7901 989.756 51.7679Z" fill="url(#paint6_linear_34_10)"/>
<path fill-rule="evenodd" clip-rule="evenodd" d="M988.376 7.58229C987.586 7.58229 986.995 7.38504 986.403 6.99052C982.458 4.62343 979.893 -10.5654 982.655 -15.2996C983.444 -16.6804 984.43 -17.0749 985.022 -17.0749C985.219 -17.0749 985.614 -17.0749 986.008 -17.0749C990.348 -17.0749 994.688 -11.9462 996.266 -5.23945C997.252 -0.505267 995.28 3.43988 992.912 5.41246C991.532 6.79326 989.954 7.58229 988.376 7.58229Z" fill="url(#paint7_linear_34_10)"/>
<path fill-rule="evenodd" clip-rule="evenodd" d="M991.926 4.22887C990.348 5.80693 988.573 6.39869 987.389 5.60966C984.233 3.83435 981.866 -10.3682 984.233 -14.5106C984.628 -15.1024 985.022 -15.4969 985.417 -15.4969C988.573 -16.0886 993.11 -11.9462 994.688 -4.84497C995.477 -1.09708 993.899 2.25629 991.926 4.22887Z" fill="url(#paint8_linear_34_10)"/>
<path fill-rule="evenodd" clip-rule="evenodd" d="M913.418 105.816C912.826 105.816 912.234 105.816 911.643 105.816C901.977 105.619 894.678 101.477 893.495 97.9262C893.1 96.5454 893.298 95.1646 894.284 94.3756C897.243 91.8112 909.67 91.614 912.234 91.614C920.322 91.614 930.185 92.403 930.974 96.1509C931.171 97.1372 931.171 98.518 929.593 100.293C927.423 102.463 924.464 105.816 913.418 105.816Z" fill="url(#paint9_linear_34_10)"/>
<path fill-rule="evenodd" clip-rule="evenodd" d="M928.409 98.9124C926.042 101.477 923.281 104.436 911.642 104.238C900.399 103.844 892.508 97.9261 895.27 95.559C899.018 92.4029 928.212 92.2057 929.198 96.5453C929.593 97.1371 929.395 98.1234 928.409 98.9124Z" fill="url(#paint10_linear_34_10)"/>
<path fill-rule="evenodd" clip-rule="evenodd" d="M958.787 14.8808C952.475 14.8808 947.741 11.9219 945.176 6.59593C939.259 -6.42306 939.259 -31.672 943.598 -41.7321C944.782 -44.2965 945.965 -45.8745 947.543 -46.4663C949.122 -47.0581 950.7 -47.4526 952.475 -47.4526C957.998 -47.4526 963.719 -43.7047 969.045 -36.8007C977.724 -25.3598 983.839 -6.81757 981.472 1.46724C980.683 4.03159 978.513 6.99045 974.962 9.35754C970.031 12.7109 964.113 14.8808 958.787 14.8808Z" fill="url(#paint11_linear_34_10)"/>
<path fill-rule="evenodd" clip-rule="evenodd" d="M979.893 0.875508C979.302 3.2426 977.132 5.80696 973.976 7.97679C965.888 13.8945 951.686 17.0506 946.557 6.00421C940.836 -6.62026 940.836 -31.2774 944.979 -41.1403C945.768 -43.1129 946.951 -44.4937 948.135 -45.0855C965.691 -52.384 983.247 -11.3545 979.893 0.875508Z" fill="url(#paint12_linear_34_10)"/>
<path fill-rule="evenodd" clip-rule="evenodd" d="M864.103 67.7458C855.029 71.0992 840.827 59.6583 833.528 40.9188C827.019 24.5464 831.95 11.5274 833.331 8.76584C843.391 11.7247 858.58 24.5464 861.736 37.9599C864.498 49.2036 865.879 61.0391 864.103 67.7458Z" fill="#FFFF45"/>
<path fill-rule="evenodd" clip-rule="evenodd" d="M928.409 98.9125C909.078 104.83 895.27 95.3619 895.27 95.3619C899.018 92.2058 928.212 92.0085 929.198 96.3482C929.593 97.1372 929.396 98.1235 928.409 98.9125Z" fill="#FFFF45"/>
<path fill-rule="evenodd" clip-rule="evenodd" d="M986.6 50.1899C973.384 71.6909 958.787 68.9293 958.787 68.9293C957.011 65.3787 957.801 50.1899 964.113 35.9873C973.581 14.8808 986.6 9.94934 991.137 10.5411H991.334C994.096 18.6287 996.068 34.8038 986.6 50.1899Z" fill="#FFFF45"/>
<path fill-rule="evenodd" clip-rule="evenodd" d="M973.976 7.97685C965.888 13.8946 951.686 17.0507 946.557 6.00427C940.836 -6.6202 940.836 -31.2774 944.979 -41.1403C948.529 -41.5348 955.433 -40.3512 963.126 -28.9103C974.173 -13.1297 977.723 -1.09699 973.976 7.97685Z" fill="#FFFF45"/>
<path fill-rule="evenodd" clip-rule="evenodd" d="M991.926 4.22905C990.348 5.80711 988.573 6.39887 987.389 5.60984C984.233 3.83453 981.866 -10.368 984.233 -14.5104C986.6 -13.1296 990.348 -10.1707 991.335 -4.84479C991.729 -1.49141 991.926 1.6647 991.926 4.22905Z" fill="#FFFF45"/>
<path opacity="0.3" fill-rule="evenodd" clip-rule="evenodd" d="M956.025 35.5929C955.039 37.7627 954.053 39.7353 952.672 41.7078C951.488 43.0886 950.108 44.2722 949.319 45.8502C946.36 51.3734 946.951 57.6857 945.373 63.4061C944.387 66.5623 942.02 69.1266 941.034 72.2827C940.639 73.6635 940.837 75.0444 940.837 76.6224C940.837 78.3977 939.85 79.5813 938.864 80.9621C937.68 82.5401 936.102 83.5264 934.327 84.3154C932.946 84.9072 931.368 84.7099 929.79 84.7099C926.437 84.7099 923.281 84.3154 919.927 83.3292C916.968 82.5401 914.207 81.1593 911.248 80.173C909.275 79.5812 907.697 79.7785 905.725 80.173C903.949 80.5675 901.977 80.3703 900.201 80.3703C897.045 80.3703 894.087 82.1456 891.325 83.5264C889.352 84.5127 887.972 85.6962 887.183 87.8661C886.196 90.4304 886.196 92.7975 883.237 93.7838C881.462 94.3756 879.292 93.7838 877.517 93.3893C875.939 92.9948 874.164 93.192 872.585 93.192C869.429 93.192 866.47 92.2057 863.512 90.8249C860.158 89.0496 857.199 86.4853 854.635 83.9209C853.254 82.5401 851.282 81.7511 849.901 80.3703C847.928 78.595 845.758 76.8197 843.983 75.0443C841.024 72.0855 837.868 69.1266 834.712 66.365C832.345 64.5897 830.372 62.2226 828.4 60.0528C826.822 58.2775 825.835 55.7131 824.652 53.5433C822.285 49.4009 820.312 44.6667 819.129 39.9325C817.748 34.6066 816.17 28.8861 816.367 23.3629C816.367 18.6287 815.775 14.289 815.775 9.55487C815.381 18.4314 815.775 25.73 816.762 32.634C815.381 26.3218 814.789 20.0095 814.789 13.3028C814.789 -5.23944 820.115 -22.4008 829.386 -36.8006C833.331 -42.9156 837.868 -48.6361 843.194 -53.5675C859.961 -69.9399 883.04 -80 908.289 -80C910.262 -80 912.431 -80 914.404 -79.8027C925.056 -79.211 935.116 -76.6466 944.584 -72.7015C946.952 -70.1371 949.319 -67.1783 951.094 -64.2194C951.883 -63.0359 952.277 -61.6551 953.066 -60.4715C953.658 -59.288 954.447 -58.8935 954.25 -57.5127C954.053 -56.7236 953.658 -55.7373 953.264 -54.9483C952.277 -52.384 949.319 -50.6086 947.149 -49.2278C943.993 -47.2553 940.442 -46.4662 937.089 -44.6909C934.919 -43.5074 934.327 -42.5211 932.749 -40.7458C931.96 -39.7595 930.974 -39.1677 930.382 -38.1814C928.607 -35.4198 927.62 -31.4747 927.818 -28.3186C928.015 -22.0063 932.946 -17.4694 934.13 -11.5517C935.116 -6.42298 934.327 -0.899769 936.102 4.03167C937.878 9.75213 942.809 14.289 947.543 17.6424C949.516 19.0232 951.291 20.2068 953.066 21.7848C954.645 23.3629 956.814 24.1519 957.998 26.1245C958.984 29.2806 957.209 32.634 956.025 35.5929Z" fill="url(#paint13_linear_34_10)"/>
<path fill-rule="evenodd" clip-rule="evenodd" d="M948.53 -70.5317C948.135 -70.5317 947.938 -70.5317 947.543 -70.3344C946.557 -70.1372 945.571 -70.3344 944.584 -70.5317C943.795 -70.7289 943.401 -71.1234 942.415 -71.1234C941.231 -71.3207 940.245 -71.7152 939.061 -71.9125C937.878 -72.1097 936.891 -72.5042 935.708 -72.8988C934.722 -73.2933 934.327 -73.096 933.538 -72.8988C932.749 -72.7015 932.157 -73.096 931.368 -73.2933C930.579 -73.6878 929.593 -73.6878 928.804 -73.885C926.437 -74.2796 924.07 -75.0686 921.703 -75.6604C920.322 -76.0549 918.941 -76.0549 917.363 -76.0549C916.179 -76.0549 915.193 -75.6604 914.01 -75.6604C913.221 -75.6604 912.629 -75.8576 911.84 -75.8576C911.051 -76.0549 910.262 -75.8576 909.473 -75.8576C908.289 -76.0549 907.697 -76.2521 906.514 -75.8576C905.527 -75.6604 904.936 -75.6604 903.949 -75.4631C902.963 -75.4631 901.78 -75.0686 900.793 -74.8713C899.018 -74.4768 897.045 -74.0823 895.27 -74.0823C894.087 -74.0823 892.508 -74.4768 891.522 -74.0823C890.93 -73.885 890.536 -73.096 889.944 -72.7015C888.958 -71.7152 887.972 -70.9262 887.183 -69.9399C886.394 -68.9536 885.604 -67.7701 885.604 -66.3893C885.604 -65.2057 886.196 -63.8249 886.788 -62.8386C887.38 -61.6551 887.577 -60.6688 886.394 -59.8798C885.013 -58.8935 883.237 -58.1045 881.659 -57.5127C880.476 -57.1182 879.489 -56.9209 878.7 -57.7099C878.306 -57.9072 878.109 -58.499 877.714 -58.8935C877.32 -59.0907 876.728 -58.8935 876.333 -58.6962C875.15 -58.3017 873.966 -57.9072 872.783 -57.7099C871.994 -57.5127 871.402 -57.1182 870.613 -57.1182C869.824 -56.9209 869.232 -57.5127 868.246 -57.3154C867.062 -57.1182 865.681 -56.5264 864.498 -56.5264C863.512 -56.5264 862.328 -56.9209 861.539 -57.3154C861.145 -57.5127 860.947 -57.9072 860.356 -57.7099C859.961 -57.7099 859.369 -57.1182 859.172 -56.7236C858.777 -56.3291 858.777 -55.7374 858.383 -55.3429C857.988 -54.7511 857.791 -54.3566 857.397 -53.7648C856.805 -52.7785 856.213 -51.7922 855.621 -50.8059C855.227 -50.2142 854.832 -49.2279 854.241 -48.6361C854.043 -48.2416 853.452 -48.0443 853.057 -47.8471C852.071 -47.2553 851.084 -46.4663 850.098 -45.8745C848.323 -44.4937 846.548 -42.9156 844.772 -41.5348C843.391 -40.5485 841.419 -39.9568 839.841 -39.1677C838.854 -38.7732 837.868 -38.3787 836.882 -37.9842C836.487 -37.7869 835.896 -37.7869 835.698 -37.3924C835.304 -36.9979 835.107 -36.6034 834.909 -36.0116C834.12 -35.0253 833.134 -33.8418 832.542 -32.6582C832.148 -31.8692 831.95 -31.2774 831.556 -30.4884C831.161 -29.5021 830.57 -28.5158 830.372 -27.3323C829.583 -25.1625 829.583 -22.7954 828.597 -20.6255C828.203 -19.442 827.414 -18.2585 826.822 -17.0749C825.835 -15.1023 825.638 -12.7352 825.441 -10.5654C825.244 -9.38187 825.441 -7.80381 825.638 -6.62026C825.835 -5.23946 825.835 -3.85866 825.835 -2.47786C825.835 -1.09706 824.849 0.481002 824.06 1.46729C823.271 2.45358 821.89 2.84809 820.904 3.83437C820.115 4.6234 819.129 5.41243 818.734 6.59598C818.537 6.99049 818.734 7.58227 818.734 8.17404C818.537 9.35759 818.142 10.3439 818.142 11.5274C817.945 12.9082 817.945 14.289 817.945 15.8671C817.945 16.6561 817.945 17.2479 817.945 18.0369C817.945 18.8259 818.142 19.4177 818.34 20.0095C818.34 20.404 818.34 20.9958 818.34 21.3903C818.34 21.9821 818.734 22.5738 818.734 22.9684C819.129 24.3492 819.326 25.5327 819.523 26.9135C819.721 28.097 820.312 29.2806 820.51 30.4641C821.101 32.0422 821.299 33.6202 821.693 35.3956C821.89 36.5791 821.89 37.9599 822.088 39.1435C822.285 40.1297 822.482 41.116 822.482 42.1023C822.482 43.6804 822.088 45.0612 822.088 46.6392C822.088 49.2036 823.074 51.7679 823.666 54.3323C823.863 55.1213 824.06 55.7131 824.257 56.5021C817.748 43.8776 814.197 29.4778 814.197 14.289C814.197 -4.25317 819.523 -21.4146 828.794 -35.8144C832.739 -41.9293 837.276 -47.6498 842.602 -52.5812C859.369 -68.9536 882.448 -79.0137 907.697 -79.0137C909.67 -79.0137 911.84 -79.0137 913.812 -78.8165C926.042 -78.8165 937.878 -75.6604 948.53 -70.5317Z" fill="url(#paint14_linear_34_10)"/>
<path opacity="0.3" fill-rule="evenodd" clip-rule="evenodd" d="M940.442 84.7099C942.217 83.5264 943.992 82.5401 945.965 81.3565C947.938 80.173 949.91 79.5812 952.08 78.5949C953.658 78.0032 953.855 78.0032 955.039 78.9894C956.222 79.9757 957.603 80.173 958.984 80.173C960.957 80.173 963.126 80.3702 963.324 82.9346C963.521 86.4852 958.392 89.4441 955.828 90.8249C953.855 92.0084 951.685 92.7975 949.516 93.7837C947.74 94.5728 945.768 95.5591 943.795 95.7563C942.02 95.9536 941.034 95.1645 939.85 93.981C938.469 92.4029 938.666 91.0221 938.666 89.2468C938.666 86.8797 938.666 85.3017 940.442 84.7099Z" fill="url(#paint15_linear_34_10)"/>
<path fill-rule="evenodd" clip-rule="evenodd" d="M916.771 101.082C916.574 101.477 916.179 101.674 916.377 102.069C916.574 102.266 916.968 102.463 917.166 102.463C917.56 102.66 918.349 102.463 918.744 102.266C919.138 102.069 918.941 101.674 918.744 101.28C918.349 100.688 917.758 100.491 917.166 100.885L916.771 101.082Z" fill="#FFFF45"/>
<path fill-rule="evenodd" clip-rule="evenodd" d="M880.081 56.5022C880.673 56.6995 881.067 56.8967 881.659 57.094C881.857 56.8967 882.054 56.8967 882.251 56.8967C882.448 56.6995 882.646 56.305 882.843 56.1077C883.04 55.7132 882.843 55.3187 882.646 54.9242C882.448 54.7269 882.448 54.3324 882.251 54.1351C882.054 53.9379 881.462 53.9379 881.265 54.1351C880.87 54.3324 880.673 54.5296 880.476 54.9242C880.278 55.1214 880.081 55.7132 880.081 55.9104C880.081 56.305 880.278 56.6995 880.673 56.8967L880.081 56.5022Z" fill="#FFFF45"/>
<path fill-rule="evenodd" clip-rule="evenodd" d="M883.632 69.1266C884.224 68.9294 884.815 68.7321 885.21 68.1403C884.815 67.9431 883.829 67.3513 883.632 68.1403V69.1266Z" fill="#FFC445"/>
<path fill-rule="evenodd" clip-rule="evenodd" d="M947.741 82.5402C948.332 82.3429 948.924 82.1457 949.319 81.5539C948.924 81.3567 947.938 80.7649 947.741 81.5539V82.5402Z" fill="#FFC445"/>
<path fill-rule="evenodd" clip-rule="evenodd" d="M914.799 7.18778C915.39 6.39875 916.179 5.2152 917.363 5.80697C917.955 6.20149 918.152 7.38503 917.56 7.77954C916.968 8.17406 916.574 8.37132 915.785 8.56858C915.39 8.76583 914.601 8.37132 914.799 7.58229V7.18778V7.18778Z" fill="#FFC445"/>
<path fill-rule="evenodd" clip-rule="evenodd" d="M856.016 6.99059C856.213 7.77962 856.41 8.7659 857.199 9.35767C857.988 9.94945 858.975 9.75219 859.567 9.16042C860.158 8.76591 860.75 8.37139 861.145 8.17413C861.539 7.97688 861.736 7.97687 861.736 7.3851C861.736 6.79333 861.342 6.20155 860.947 5.80704C860.553 5.41252 859.961 4.82075 859.369 4.62349C858.186 4.22898 856.016 4.6235 856.016 6.20156V6.99059Z" fill="#FFD32F"/>
<path fill-rule="evenodd" clip-rule="evenodd" d="M923.083 7.97692C923.281 8.76595 923.478 9.75223 924.267 10.344C925.056 10.9358 926.042 10.7385 926.634 10.1467C927.226 9.75223 927.818 9.35772 928.212 9.16046C928.607 8.9632 928.804 8.9632 928.804 8.37143C928.804 7.77966 928.409 7.18788 928.015 6.79336C927.62 6.39885 927.028 5.80708 926.437 5.60982C925.253 5.21531 923.083 5.60983 923.083 7.18789V7.97692Z" fill="#FFBA00"/>
<path fill-rule="evenodd" clip-rule="evenodd" d="M827.611 41.7078C827.611 41.7078 826.822 45.0612 829.189 49.4009C831.556 53.7405 833.331 53.346 833.331 53.346C833.331 53.346 831.161 45.4557 827.611 41.7078Z" fill="#FFFF59"/>
<path fill-rule="evenodd" clip-rule="evenodd" d="M980.091 -4.25314C980.091 -4.25314 977.329 3.63715 976.935 4.8207C976.935 4.62344 981.275 3.4399 980.091 -4.25314Z" fill="#FFFF59"/>
<path fill-rule="evenodd" clip-rule="evenodd" d="M994.885 -1.88611C994.885 -1.88611 992.913 -0.505309 991.926 3.24258C991.926 3.24258 994.294 4.42613 994.885 -1.88611Z" fill="#FFFF59"/>
<path fill-rule="evenodd" clip-rule="evenodd" d="M964.705 71.4938C964.705 71.4938 973.581 65.7733 978.71 65.3788C978.71 65.3788 972.792 72.48 964.705 71.4938Z" fill="#FFFF59"/>
<path fill-rule="evenodd" clip-rule="evenodd" d="M781.202 345.665C781.202 345.665 782.205 337.308 782.874 332.795C782.874 332.795 788.557 324.772 797.582 318.254L809.616 318.922C809.616 318.922 785.214 338.478 781.202 345.665Z" fill="url(#paint16_linear_34_10)"/>
<path fill-rule="evenodd" clip-rule="evenodd" d="M797.582 318.254C797.582 318.254 797.582 324.939 791.398 330.288C785.214 335.636 782.54 333.798 782.54 333.798L781.036 344.495L809.449 318.922L797.582 318.254Z" fill="url(#paint17_linear_34_10)"/>
<path fill-rule="evenodd" clip-rule="evenodd" d="M927.28 388.285C927.28 395.806 926.277 403.327 924.271 410.18C920.26 424.219 912.404 436.588 902.042 446.282C894.688 453.134 885.83 458.65 876.136 462.327C867.444 465.67 857.917 467.508 848.056 467.508C846.719 467.508 845.215 467.508 843.878 467.341C841.872 467.174 839.699 467.007 837.694 466.84C822.484 464.834 808.445 458.483 797.246 448.956C793.068 445.446 789.224 441.435 785.714 437.089C783.207 433.746 780.867 430.403 778.861 426.726C778.36 425.891 777.858 424.888 777.357 424.052C777.357 424.052 777.357 424.052 777.357 423.885C776.855 422.882 776.354 422.047 776.02 421.044C774.683 418.035 773.513 414.86 772.51 411.684C771.841 409.344 771.173 407.004 770.671 404.664C770.337 402.993 770.003 401.321 769.836 399.483C769.334 395.806 769 392.129 769 388.285C769 386.112 769 383.939 769.334 381.766C769.501 380.429 769.669 379.092 769.836 377.755C770.839 369.899 773.011 362.545 776.187 355.693C777.691 352.35 779.53 349.007 781.535 345.999C784.878 340.817 788.722 335.97 793.235 331.625C807.442 317.752 826.997 309.228 848.391 309.228C849.226 309.228 850.062 309.228 850.898 309.228C851.733 309.228 852.736 309.228 853.572 309.395C858.085 309.73 862.597 310.398 866.943 311.401C869.45 312.07 871.957 312.738 874.297 313.574C875.968 314.075 877.473 314.744 879.144 315.412C880.314 315.914 881.484 316.415 882.654 316.917C882.821 317.084 882.988 317.084 883.322 317.251C891.011 320.928 898.031 325.942 904.048 331.959C904.883 332.795 905.719 333.63 906.555 334.633C907.056 335.302 907.725 335.803 908.226 336.472C909.229 337.475 910.065 338.645 910.9 339.647C914.076 343.659 916.75 348.004 919.09 352.517C921.764 357.865 923.937 363.548 925.441 369.398C926.444 375.248 927.28 381.599 927.28 388.285Z" fill="url(#paint18_radial_34_10)"/>
<path fill-rule="evenodd" clip-rule="evenodd" d="M882.821 317.084C882.487 317.084 882.32 317.084 881.985 317.251C881.15 317.418 880.314 317.251 879.478 317.084C878.81 316.917 878.475 316.583 877.64 316.583C876.637 316.415 875.801 316.081 874.798 315.914C873.796 315.747 872.96 315.413 871.957 315.078C871.121 314.744 870.787 314.911 870.119 315.078C869.45 315.246 868.949 314.911 868.28 314.744C867.611 314.41 866.776 314.41 866.107 314.243C864.102 313.908 862.096 313.24 860.09 312.738C858.92 312.404 857.75 312.404 856.413 312.404C855.41 312.404 854.575 312.738 853.572 312.738C852.903 312.738 852.402 312.571 851.733 312.571C851.065 312.404 850.396 312.571 849.728 312.571C848.725 312.404 848.223 312.237 847.221 312.571C846.385 312.738 845.884 312.738 845.048 312.906C844.212 312.906 843.209 313.24 842.374 313.407C840.869 313.741 839.198 314.076 837.694 314.076C836.691 314.076 835.354 313.741 834.518 314.076C834.017 314.243 833.682 314.911 833.181 315.246C832.345 316.081 831.51 316.75 830.841 317.585C830.173 318.421 829.504 319.424 829.504 320.594C829.504 321.597 830.005 322.767 830.507 323.602C831.008 324.605 831.175 325.441 830.173 326.109C829.003 326.945 827.498 327.614 826.161 328.115C825.158 328.449 824.323 328.617 823.654 327.948C823.32 327.781 823.153 327.279 822.818 326.945C822.484 326.778 821.983 326.945 821.649 327.112C820.646 327.447 819.643 327.781 818.64 327.948C817.971 328.115 817.47 328.449 816.801 328.449C816.133 328.617 815.632 328.115 814.796 328.282C813.793 328.449 812.623 328.951 811.62 328.951C810.785 328.951 809.782 328.617 809.113 328.282C808.779 328.115 808.612 327.781 808.11 327.948C807.776 327.948 807.275 328.449 807.107 328.784C806.773 329.118 806.773 329.619 806.439 329.954C806.105 330.455 805.938 330.789 805.603 331.291C805.102 332.126 804.6 332.962 804.099 333.798C803.765 334.299 803.43 335.135 802.929 335.636C802.762 335.971 802.26 336.138 801.926 336.305C801.09 336.806 800.255 337.475 799.419 337.976C797.915 339.146 796.411 340.483 794.906 341.653C793.736 342.489 792.065 342.99 790.728 343.659C789.892 343.993 789.057 344.328 788.221 344.662C787.887 344.829 787.385 344.829 787.218 345.163C786.884 345.498 786.717 345.832 786.55 346.333C785.881 347.169 785.045 348.172 784.544 349.175C784.21 349.843 784.042 350.345 783.708 351.013C783.374 351.849 782.872 352.684 782.705 353.687C782.037 355.526 782.037 357.531 781.201 359.37C780.867 360.373 780.198 361.376 779.697 362.378C778.861 364.05 778.694 366.056 778.527 367.894C778.36 368.897 778.527 370.234 778.694 371.237C778.861 372.407 778.861 373.577 778.861 374.747C778.861 375.917 778.025 377.254 777.357 378.089C776.688 378.925 775.518 379.259 774.683 380.095C774.014 380.764 773.178 381.432 772.844 382.435C772.677 382.769 772.844 383.271 772.844 383.772C772.677 384.775 772.343 385.611 772.343 386.613C772.176 387.783 772.176 388.953 772.176 390.291C772.176 390.959 772.176 391.461 772.176 392.129C772.176 392.798 772.343 393.299 772.51 393.8C772.51 394.135 772.51 394.636 772.51 394.97C772.51 395.472 772.844 395.973 772.844 396.308C773.178 397.477 773.346 398.48 773.513 399.65C773.68 400.653 774.181 401.656 774.348 402.659C774.85 403.996 775.017 405.333 775.351 406.837C775.518 407.84 775.518 409.01 775.686 410.013C775.853 410.849 776.02 411.684 776.02 412.52C776.02 413.857 775.686 415.027 775.686 416.364C775.686 418.537 776.521 420.71 777.023 422.882C777.19 423.551 777.357 424.052 777.524 424.721C772.008 414.024 769 401.823 769 388.953C769 373.242 773.513 358.701 781.368 346.5C784.711 341.319 788.555 336.472 793.068 332.294C807.275 318.421 826.83 309.897 848.223 309.897C849.895 309.897 851.733 309.897 853.405 310.064C863.767 309.897 873.796 312.571 882.821 317.084Z" fill="url(#paint19_linear_34_10)"/>
<path opacity="0.4" fill-rule="evenodd" clip-rule="evenodd" d="M866.444 311.234C862.098 310.231 857.752 309.563 853.073 309.228C852.237 309.228 851.234 309.061 850.398 309.061C852.237 310.064 854.075 311.903 854.41 313.908C855.078 317.251 856.248 320.26 856.75 323.435C857.418 326.611 857.251 330.622 855.747 333.464C854.911 335.302 853.741 336.806 852.237 338.311C851.234 339.313 850.231 339.982 849.563 341.319C848.894 342.656 848.058 343.826 847.223 344.996C846.053 346.835 844.716 348.673 843.211 350.344C842.71 351.013 842.209 351.347 841.707 352.016C841.206 352.852 840.871 353.687 840.203 354.356C838.699 355.86 836.526 356.863 834.687 357.531C832.18 358.534 830.007 359.537 827.668 360.874C824.325 362.713 821.483 364.885 817.639 365.053C816.302 365.053 814.965 364.885 813.628 365.053C811.957 365.22 810.452 365.888 808.948 366.223C807.611 366.557 806.107 366.724 804.77 367.058C802.43 367.393 800.591 368.228 798.418 368.73C795.577 369.398 792.569 369.231 789.56 369.732C786.886 370.067 784.713 370.401 782.039 369.732C778.028 368.73 775.855 366.891 776.69 362.546C777.192 359.704 777.025 357.531 775.688 355.526C772.512 362.378 770.339 369.9 769.336 377.588C771.175 378.424 773.348 378.758 775.186 378.925C781.036 379.594 787.387 376.919 792.736 374.914C795.41 373.911 798.251 372.407 801.26 372.072C804.435 371.738 807.11 372.072 810.285 371.404C820.982 368.73 831.512 365.053 841.206 359.37C845.217 357.03 846.888 353.687 849.73 350.344C852.07 347.336 854.911 344.996 857.752 342.489C860.594 339.982 863.101 337.642 864.772 334.299C866.611 330.789 868.115 326.778 868.951 322.934C869.786 318.588 868.616 314.577 866.444 311.234ZM865.942 321.931C865.775 322.767 865.608 323.769 865.441 324.605C864.772 326.778 863.435 328.951 861.429 329.954C860.594 330.455 859.257 330.121 858.755 329.285C858.421 328.784 858.421 328.115 858.421 327.614C858.254 326.444 858.087 325.441 858.087 324.271C858.087 321.597 858.087 318.922 857.752 316.248C858.087 317.753 857.752 313.908 860.092 312.906C861.262 312.404 862.934 312.906 863.769 313.741C864.772 314.911 865.107 316.75 865.441 318.087C865.775 319.591 866.109 320.594 865.942 321.931Z" fill="url(#paint20_linear_34_10)"/>
<path opacity="0.4" fill-rule="evenodd" clip-rule="evenodd" d="M854.407 448.454C854.24 448.454 853.906 448.622 853.739 448.622L855.243 448.789C855.243 448.622 854.909 448.454 854.407 448.454ZM854.407 448.454C854.24 448.454 853.906 448.622 853.739 448.622L855.243 448.789C855.243 448.622 854.909 448.454 854.407 448.454ZM924.94 369.064C924.94 371.069 924.271 373.242 924.271 375.248C924.271 378.089 923.77 380.262 923.101 382.936C922.6 384.775 921.597 386.112 921.096 387.95C920.427 389.956 919.424 391.795 918.421 393.633C916.416 397.31 914.243 401.154 913.407 405.333C912.572 409.177 912.404 412.353 910.566 415.862C908.727 419.205 906.053 422.047 904.047 425.389C903.212 426.894 902.543 426.894 901.039 427.896C899.535 429.066 898.03 430.738 896.526 431.908C893.351 434.415 890.342 436.253 886.331 437.758C883.824 438.76 881.484 439.429 878.81 439.763C877.138 440.097 875.467 439.763 873.795 440.097C871.121 440.599 868.614 441.267 865.94 442.103C861.762 443.44 857.416 444.276 853.237 445.613C850.229 446.449 847.388 447.117 844.379 447.619C842.541 447.953 841.036 448.956 839.198 448.622C837.359 448.287 835.521 447.619 833.682 446.95C831.342 446.282 829.337 446.114 826.83 446.114C823.487 446.114 819.476 446.616 815.966 445.947C812.121 445.279 808.444 444.109 804.6 443.44C802.26 442.939 800.589 441.936 798.416 441.1C796.41 440.097 794.405 439.93 792.232 439.262C790.059 438.593 787.886 437.59 785.714 437.089C789.056 441.435 792.901 445.446 797.246 448.956C808.444 458.483 822.317 464.834 837.694 466.84C839.699 467.007 841.705 467.341 843.878 467.341C848.39 466.338 852.736 465.001 857.249 463.664C864.77 461.324 871.288 456.811 878.81 454.638C881.651 453.803 884.158 452.967 886.665 451.63C888.671 450.627 890.676 450.46 892.515 449.624C899.535 446.616 904.716 439.93 907.892 433.245C909.229 430.236 910.566 426.894 913.24 424.554C914.243 423.551 915.58 422.882 916.416 421.712C917.418 420.542 918.087 419.205 919.09 417.868C920.761 415.695 922.265 413.355 923.77 411.183C923.937 410.848 924.104 410.681 924.271 410.347C926.277 403.327 927.28 395.973 927.28 388.452C927.28 381.599 926.444 375.248 924.94 369.064ZM852.235 448.956C852.569 448.789 852.903 448.454 853.237 448.287C853.572 448.12 854.073 448.287 854.407 448.454C855.076 448.287 855.577 448.287 856.079 448.622C856.413 448.789 856.914 449.123 857.082 449.457C857.249 449.792 857.082 449.959 856.747 450.293C856.413 450.627 856.246 450.627 855.745 450.627C854.909 450.794 854.073 450.961 853.07 450.794C852.569 450.794 851.733 450.627 851.399 450.293C851.399 449.624 851.9 449.29 852.235 448.956ZM857.416 459.318C856.915 459.987 856.413 460.655 855.745 460.99C855.076 461.491 854.407 461.658 853.906 462.16C852.235 462.995 850.563 463.998 848.892 464.5C848.223 464.667 847.388 464.667 846.719 464.667C845.883 464.834 844.881 464.834 844.045 464.834C843.042 464.834 841.872 465.001 840.869 465.168C839.866 465.168 838.696 465.335 837.694 465.335C835.855 465.502 834.351 465.168 832.679 464.5C831.175 463.998 829.671 463.163 828.334 462.327C827.331 461.658 826.495 460.823 825.827 459.987C824.991 459.318 824.49 458.483 823.988 457.48C823.821 457.146 823.654 456.811 823.821 456.31C823.821 456.143 823.988 455.976 823.988 455.976C824.323 455.808 824.657 455.474 824.824 455.474C825.325 455.14 825.994 455.14 826.663 454.973C828.167 454.806 829.671 454.973 831.175 455.14C832.011 455.14 832.847 455.307 833.682 455.14C834.852 454.973 836.022 454.639 837.025 454.304C839.699 453.636 842.374 452.967 845.048 452.8C847.722 452.466 850.73 452.131 853.405 452.633C854.407 452.8 855.745 453.134 856.58 453.636C857.249 454.137 857.75 454.806 858.084 455.474C858.586 456.811 858.252 458.148 857.416 459.318ZM878.475 452.466C877.974 452.967 877.305 453.301 876.637 453.803C875.801 454.471 874.965 454.806 874.13 455.307C873.461 455.808 872.625 456.143 871.957 456.477C871.121 456.811 870.453 457.146 869.617 457.647C868.781 457.981 867.946 458.316 867.11 458.65C866.441 458.817 865.773 459.151 865.104 458.984C864.603 458.817 863.934 458.65 863.6 458.316C862.931 457.647 863.099 456.978 863.266 456.644C863.266 456.143 863.099 455.307 863.266 454.638C863.433 454.304 863.767 453.803 863.934 453.469C864.603 452.131 865.606 451.296 866.609 450.293C867.444 449.457 868.447 448.789 869.617 448.287C870.954 447.786 872.625 447.619 873.963 447.452C875.467 447.284 878.141 447.117 878.977 448.956C879.478 450.126 879.311 451.296 878.475 452.466ZM855.41 448.622C855.243 448.622 854.909 448.454 854.575 448.287C854.407 448.287 854.073 448.454 853.906 448.454L855.41 448.622Z" fill="url(#paint21_linear_34_10)"/>
<path opacity="0.4" fill-rule="evenodd" clip-rule="evenodd" d="M918.589 352.183V352.517C918.422 354.69 917.587 356.194 916.751 358.2C916.082 359.871 915.414 361.208 914.578 362.712C913.241 365.219 912.572 367.559 911.57 370.401C909.898 374.579 909.23 379.092 906.723 382.936C904.55 386.446 903.881 390.624 902.21 394.301C900.204 398.48 897.029 401.321 893.686 404.33C892.182 405.667 890.844 407.338 889.507 408.842C888.003 410.347 887 412.352 885.162 413.689C881.485 416.364 877.306 418.704 873.629 421.545C871.456 423.216 869.952 425.556 867.445 426.893C865.105 428.398 862.431 429.4 860.091 430.738C857.918 432.075 855.745 433.412 853.406 434.415C850.731 435.417 848.559 435.083 845.717 435.25C842.709 435.417 839.533 436.253 836.692 437.256C834.352 438.092 832.346 438.927 829.839 438.092C828.168 437.59 826.831 436.42 825.159 436.086C821.148 435.25 816.802 436.086 812.791 435.919C809.615 435.752 806.273 435.083 803.097 434.415C800.088 433.913 797.581 431.74 794.74 430.905C791.063 429.902 786.885 430.738 783.542 429.4C782.038 428.899 780.7 427.729 779.53 426.893C779.196 426.726 779.029 426.559 778.695 426.392C778.193 425.556 777.692 424.553 777.191 423.718C778.026 424.052 778.862 424.386 779.698 424.888C784.21 427.06 789.893 426.726 794.74 427.562C800.256 428.565 805.771 429.902 811.287 430.57C813.627 430.905 815.799 430.738 818.139 430.57C821.315 430.236 824.491 430.236 827.666 429.735C833.015 428.732 838.363 426.225 843.879 426.893C844.881 427.061 846.051 427.562 847.054 427.562C848.559 427.562 849.729 426.225 850.898 425.389C853.071 424.052 855.411 424.219 857.417 422.381C859.255 420.542 861.428 419.372 863.768 418.202C869.785 415.194 874.632 410.18 879.479 405.333C883.49 401.321 887.335 397.143 890.009 392.296C892.683 387.449 892.182 381.599 894.187 376.585C895.691 372.908 896.861 369.565 899.201 366.389C900.371 364.885 901.708 363.548 902.878 362.044C904.215 360.54 904.884 358.868 905.887 357.03C906.89 355.024 908.394 353.353 909.23 351.18C910.065 349.174 909.898 347.503 909.898 345.33C909.898 343.157 909.898 340.817 909.898 338.477C913.408 343.324 916.249 347.67 918.589 352.183Z" fill="url(#paint22_linear_34_10)"/>
<path opacity="0.4" fill-rule="evenodd" clip-rule="evenodd" d="M906.053 334.299C905.218 333.463 904.382 332.461 903.546 331.625C897.529 325.608 890.509 320.761 882.821 316.917C882.654 316.75 882.487 316.75 882.152 316.583C880.983 316.081 879.813 315.58 878.643 315.078C876.971 314.41 875.467 313.741 873.796 313.24C874.297 313.574 874.966 313.908 875.133 313.908C876.136 314.41 876.971 314.744 877.64 315.58C878.308 316.415 878.643 317.084 878.643 318.254C878.643 319.257 878.81 320.427 878.977 321.43C879.144 322.432 879.645 323.268 879.813 324.271C879.98 324.772 879.98 325.274 880.147 325.942C880.481 327.279 880.983 328.616 881.317 329.954C881.818 332.461 880.481 334.466 879.645 336.639C878.308 340.149 877.473 343.659 876.303 347.336C875.467 350.177 873.963 353.019 871.79 355.191C869.617 357.197 866.441 357.698 864.603 359.871C862.932 361.877 860.926 363.715 858.586 364.718C855.912 366.055 852.903 367.058 850.062 367.894C848.056 368.562 845.884 368.562 843.711 369.064C841.037 369.732 838.697 371.07 836.357 372.072C833.682 373.242 831.342 374.579 828.668 375.749C825.994 376.919 823.654 378.424 820.98 379.426C819.643 379.928 818.306 380.262 817.136 380.596C814.462 381.599 811.954 383.271 809.113 383.605C808.11 383.772 807.107 383.939 806.105 383.939C805.269 383.939 804.6 384.106 803.932 384.273C801.425 385.276 799.921 387.95 797.079 388.118C794.405 388.118 791.898 387.95 789.391 388.285C788.054 388.452 786.884 388.285 785.714 388.452C785.38 388.452 784.878 388.619 784.544 388.452C784.21 388.285 783.708 387.95 783.207 387.616C782.204 387.115 781.368 386.446 780.533 385.778C778.861 384.441 776.688 385.276 774.85 384.775C774.348 384.608 773.513 384.775 773.011 384.441C771.841 383.772 770.337 382.268 769.334 381.432C769.167 383.605 769 385.778 769 387.95C769 391.795 769.334 395.472 769.836 399.149C770.003 400.82 770.337 402.492 770.671 404.33C771.173 406.67 771.841 409.177 772.51 411.35C773.513 414.525 774.683 417.701 776.02 420.71C778.193 421.044 780.365 421.378 782.538 421.044C785.714 420.542 788.722 420.041 791.898 420.208C794.906 420.375 797.581 421.378 800.422 421.88C803.598 422.381 806.94 422.882 810.283 423.049C813.292 423.217 816.3 423.551 819.141 423.885C821.314 424.219 823.654 424.554 825.827 424.721C831.677 425.055 837.359 423.551 843.042 423.049C845.884 422.715 848.725 422.047 851.566 421.378C853.238 421.044 854.909 420.542 856.413 419.54C858.419 418.202 859.756 416.364 861.427 414.86C863.433 413.188 865.439 411.517 867.444 410.013C869.116 408.676 870.787 407.171 872.626 406.001C873.963 405.166 875.467 404.163 876.804 403.16C879.311 401.154 881.484 398.814 883.657 396.307C886.665 392.797 887.835 387.95 889.005 383.605C890.175 379.594 890.844 375.749 893.016 372.072C894.019 370.401 894.855 368.395 895.356 366.39C895.691 365.22 895.858 363.715 896.359 362.545C897.195 360.707 899.033 359.203 900.036 357.531C900.872 356.194 901.875 354.857 902.376 353.186C903.546 350.177 904.382 347.169 904.883 343.826C905.218 341.486 906.053 339.146 906.722 336.806C906.889 336.472 906.889 335.971 907.056 335.636C907.056 335.469 906.555 334.801 906.053 334.299ZM802.929 388.452C803.096 388.118 806.105 386.948 806.439 386.781C806.439 386.781 806.439 386.781 806.272 386.781L804.266 387.616C806.439 386.948 810.283 389.12 808.445 391.46C807.943 392.129 806.439 392.463 805.603 392.63C804.768 392.797 804.266 392.463 803.765 391.795C803.263 391.126 802.929 390.123 802.929 389.288C802.929 389.12 802.929 388.619 802.929 388.452ZM779.363 409.678C777.023 409.01 775.518 408.174 774.181 406.169C773.178 404.831 772.51 403.661 772.176 402.157C772.008 400.82 771.507 399.817 771.841 398.48C772.008 397.477 772.51 396.307 773.011 395.472C773.513 394.469 774.348 393.299 774.348 392.965C776.688 392.797 778.861 392.63 781.034 392.63C783.541 392.63 786.215 392.965 788.722 392.965C789.892 392.965 791.062 392.965 792.232 392.797C793.402 392.63 794.405 392.296 795.575 392.129C797.581 391.795 799.419 391.628 801.258 392.463C802.595 393.132 803.263 394.803 803.932 396.14C804.266 396.976 804.6 397.477 804.6 398.48C804.6 399.65 804.6 400.653 804.433 401.656C804.433 401.99 804.266 402.492 804.266 402.826C802.595 406.336 798.249 407.506 794.906 408.843C789.892 410.848 784.377 411.016 779.363 409.678ZM814.963 417.367C813.96 420.041 809.615 420.877 807.107 421.044C805.938 421.044 804.433 420.877 803.263 420.208C802.595 419.874 802.093 419.205 801.592 418.537C801.258 418.035 800.756 417.2 799.419 417.534C799.753 416.03 800.088 414.693 800.756 413.355C801.258 412.687 801.926 412.186 802.595 411.517C803.765 410.514 805.102 409.511 806.439 408.843C808.612 407.673 810.952 408.508 812.957 409.511C814.462 410.18 815.464 411.183 815.799 412.687C816.3 414.525 815.632 415.695 814.963 417.367ZM844.379 416.865C843.544 418.704 842.374 419.205 840.702 420.208C838.697 421.211 836.022 422.047 833.85 422.047C832.68 422.047 831.51 421.545 830.507 421.044C829.838 420.71 829.003 420.542 828.501 420.041C826.997 418.537 826.663 416.531 827.665 416.865C826.997 415.528 826.663 414.191 826.496 412.854C826.83 412.687 826.997 412.353 826.997 412.018C827.833 410.514 829.337 409.177 831.008 408.341C833.682 406.837 837.192 406.503 840.201 407.84C841.538 408.341 842.374 409.01 843.209 410.013C843.711 410.514 844.212 410.848 844.714 411.517C845.215 412.854 844.881 415.361 844.379 416.865ZM853.238 416.531C852.736 416.865 851.9 417.534 851.399 417.534C850.898 417.367 850.062 416.531 850.062 415.863L849.728 415.528C850.396 414.358 851.065 413.355 851.733 412.186C852.736 412.687 853.739 412.52 854.408 413.69C855.243 414.86 854.073 415.863 853.238 416.531ZM875.801 363.883C874.966 365.053 873.796 366.223 872.458 366.724C870.787 367.393 868.447 368.061 868.28 365.387C868.28 363.883 868.447 362.713 869.116 361.376C870.119 359.37 870.954 358.868 872.96 357.866C873.628 357.866 874.464 358.2 874.966 358.367C875.968 358.701 876.971 359.704 877.138 360.874C877.305 362.044 876.47 363.047 875.801 363.883ZM896.694 352.684C895.858 355.359 894.688 357.866 893.518 360.206C892.181 363.214 892.014 366.39 891.178 369.565C890.844 371.404 889.841 373.409 888.169 374.078C887.334 374.412 886.665 374.245 885.83 374.245C884.994 374.245 883.657 374.579 883.657 375.248C883.155 373.911 882.487 372.24 882.152 370.902C881.818 369.398 881.651 367.727 881.484 366.055C881.15 364.384 881.15 362.713 880.983 361.041C880.815 359.537 880.481 357.866 880.481 356.361C880.481 351.18 883.49 344.662 888.337 342.322C889.841 341.653 891.345 341.319 893.016 341.486C894.855 341.82 896.025 342.322 896.861 344.16C897.863 346.667 897.362 350.01 896.694 352.684Z" fill="url(#paint23_linear_34_10)"/>
<path opacity="0.4" fill-rule="evenodd" clip-rule="evenodd" d="M873.913 359.555C873.745 359.722 873.411 359.722 873.244 359.889C872.743 359.889 872.408 359.722 872.074 359.889L873.913 359.555Z" fill="url(#paint24_linear_34_10)"/>
<path fill-rule="evenodd" clip-rule="evenodd" d="M851.016 397.997C847.673 396.325 851.518 381.45 854.86 378.107C858.203 374.764 867.061 382.453 868.064 388.637C869.234 394.988 858.872 401.674 851.016 397.997Z" fill="url(#paint25_linear_34_10)"/>
<path fill-rule="evenodd" clip-rule="evenodd" d="M863.266 310.565L877.139 305.05C877.139 305.05 899.201 313.574 913.241 332.46L914.076 344.494C914.076 344.494 887.669 334.299 863.266 310.565Z" fill="url(#paint26_linear_34_10)"/>
<path fill-rule="evenodd" clip-rule="evenodd" d="M913.743 432.743C913.743 432.743 902.043 445.446 893.352 448.12L886.165 450.293C886.165 450.293 853.239 438.426 851.4 417.868C849.896 400.486 879.479 373.911 887.502 370.735C895.525 367.559 904.884 369.398 904.884 369.398L913.743 432.743Z" fill="url(#paint27_linear_34_10)"/>
<path fill-rule="evenodd" clip-rule="evenodd" d="M904.885 369.398C897.865 367.225 867.947 381.098 859.757 412.018C858.086 418.369 873.296 442.27 891.514 448.12C897.531 450.126 925.276 425.891 926.446 409.511C927.616 393.132 915.247 372.741 904.885 369.398Z" fill="url(#paint28_linear_34_10)"/>
<path fill-rule="evenodd" clip-rule="evenodd" d="M861.762 415.695C866.108 380.596 898.031 369.064 905.051 371.237C910.065 372.908 917.419 380.262 921.765 387.449C917.419 378.424 910.901 371.07 905.051 369.231C898.031 367.058 868.114 380.931 859.924 411.851C859.422 414.024 860.76 418.37 863.768 423.384C861.93 420.208 861.428 417.367 861.762 415.695Z" fill="url(#paint29_linear_34_10)"/>
<path fill-rule="evenodd" clip-rule="evenodd" d="M854.075 394.803C851.401 393.466 854.409 381.098 857.083 378.256C859.758 375.582 866.777 381.933 867.78 387.115C868.783 392.296 860.426 397.812 854.075 394.803Z" fill="url(#paint30_linear_34_10)"/>
<path fill-rule="evenodd" clip-rule="evenodd" d="M877.139 305.05C877.139 305.05 877.807 313.407 887.334 323.769C896.861 334.132 913.241 332.46 913.241 332.46L914.076 344.494C914.076 344.494 879.312 329.118 863.266 310.565L877.139 305.05Z" fill="url(#paint31_linear_34_10)"/>
<path fill-rule="evenodd" clip-rule="evenodd" d="M937.143 365.721C936.809 366.056 935.806 366.724 936.642 367.226C936.809 367.393 936.976 367.226 937.143 367.393C937.31 367.393 937.31 367.56 937.477 367.56C938.146 367.058 937.812 365.554 937.143 365.721Z" fill="#0EDBFF"/>
<path fill-rule="evenodd" clip-rule="evenodd" d="M771.342 335.135C772.679 335.636 774.016 336.138 775.354 336.806C775.855 336.472 776.356 336.472 776.858 336.138C777.526 335.636 778.028 334.801 778.362 334.132C778.696 332.962 778.195 332.126 777.693 331.291C777.359 330.789 777.025 329.954 776.524 329.452C775.855 328.951 774.685 329.118 774.016 329.452C773.181 329.786 772.679 330.622 772.178 331.291C771.677 331.959 771.175 333.129 771.008 333.965C771.008 334.801 771.677 335.803 772.345 336.305L771.342 335.135Z" fill="#0EDBFF"/>
<path fill-rule="evenodd" clip-rule="evenodd" d="M858.588 286.999C859.925 287.501 861.263 288.002 862.6 288.671C863.101 288.336 863.602 288.336 864.104 288.002C864.772 287.501 865.274 286.665 865.608 285.996C865.942 284.826 865.441 283.991 864.94 283.155C864.605 282.654 864.271 281.818 863.77 281.316C863.101 280.815 861.931 280.982 861.263 281.316C860.427 281.651 859.925 282.486 859.424 283.155C858.923 283.824 858.421 284.993 858.254 285.829C858.254 286.665 858.923 287.668 859.591 288.169L858.588 286.999Z" fill="#0EDBFF"/>
<path fill-rule="evenodd" clip-rule="evenodd" d="M897.03 322.432C897.364 322.432 897.532 322.265 897.866 322.265C897.866 322.265 898.033 322.265 898.2 322.265C898.534 322.265 898.534 322.265 898.534 322.432C898.702 322.6 898.702 322.934 898.702 323.101C898.534 324.104 897.197 322.6 897.699 322.265L897.03 322.432Z" fill="#0EDBFF"/>
<path fill-rule="evenodd" clip-rule="evenodd" d="M790.73 324.271C790.229 324.438 789.56 324.438 789.56 324.94C789.56 325.441 790.229 325.775 790.563 325.942C791.231 326.109 792.234 326.277 792.569 325.441C792.736 324.94 792.569 324.104 792.401 323.77C791.9 322.934 790.73 323.268 789.894 323.602L790.73 324.271Z" fill="#0EDBFF"/>
<path fill-rule="evenodd" clip-rule="evenodd" d="M891.18 313.908C892.016 314.076 893.687 314.076 893.52 315.413C893.52 316.081 892.517 316.917 891.849 316.583C891.18 316.248 890.846 315.914 890.345 315.413C890.01 315.078 889.843 314.243 890.679 314.076L891.18 313.908Z" fill="#0EDBFF"/>
<path fill-rule="evenodd" clip-rule="evenodd" d="M887.837 315.413C888.339 315.747 889.007 316.081 889.509 316.583C890.01 317.251 890.512 317.753 890.846 318.421C891.013 318.755 891.514 319.591 890.846 319.591C890.177 319.758 888.84 318.755 888.172 318.254C887.169 317.585 886.333 317.084 885.665 316.081C885.33 315.58 884.829 314.744 885.163 314.243C885.497 313.741 885.832 313.741 886.333 313.741C886.834 313.741 887.169 313.908 887.67 314.243C887.837 314.41 888.84 315.413 888.506 315.58L887.837 315.413Z" fill="#0EDBFF"/>
<path fill-rule="evenodd" clip-rule="evenodd" d="M910.234 309.897C909.566 310.399 904.217 313.24 906.724 314.577C908.061 315.246 910.735 315.078 912.073 314.41C913.243 313.908 914.58 313.073 913.744 311.736C912.24 308.894 908.396 310.566 906.39 311.736L910.234 309.897Z" fill="#0EDBFF"/>
<path fill-rule="evenodd" clip-rule="evenodd" d="M877.307 306.387C877.307 306.387 880.984 321.764 891.179 327.614C904.049 334.968 913.074 332.461 913.074 332.461C913.074 332.461 901.542 332.126 890.845 324.772C881.987 318.588 877.307 306.387 877.307 306.387Z" fill="url(#paint32_linear_34_10)"/>
<path opacity="0.3" fill-rule="evenodd" clip-rule="evenodd" d="M866.108 313.908C866.108 313.908 899.034 347.002 922.768 361.71C922.768 361.71 920.428 352.684 914.077 344.327C914.077 344.494 894.187 337.976 866.108 313.908Z" fill="black"/>
<path fill-rule="evenodd" clip-rule="evenodd" d="M1331.01 188.109C1331.01 197.183 1329.83 205.863 1327.46 213.951C1322.73 230.521 1313.65 245.119 1301.22 256.56C1292.54 264.648 1282.09 271.158 1270.65 275.497C1260.39 279.443 1249.15 281.613 1237.51 281.613C1235.93 281.613 1234.15 281.613 1232.58 281.415C1230.21 281.218 1227.64 281.021 1225.28 280.824C1207.33 278.456 1190.75 270.96 1177.54 259.716C1172.61 255.574 1168.07 250.839 1163.93 245.71C1160.97 241.962 1158.21 237.82 1155.84 233.48C1155.25 232.494 1154.66 231.31 1154.06 230.324C1153.47 229.14 1152.88 228.154 1152.49 226.97C1150.91 223.42 1149.53 219.671 1148.34 215.923C1147.55 213.162 1146.76 210.4 1146.17 207.638C1145.78 205.666 1145.38 203.693 1145.19 201.523C1144.59 197.183 1144.2 192.843 1144.2 188.306C1144.2 185.742 1144.2 183.177 1144.59 180.613C1144.79 179.035 1144.79 177.457 1145.19 175.879C1146.37 166.607 1148.93 157.928 1152.68 149.84C1154.46 145.894 1156.63 141.949 1159 138.398C1162.94 132.283 1167.48 126.562 1172.8 121.434C1189.57 105.061 1212.65 95 1237.9 95C1238.89 95 1239.87 95 1240.86 95C1241.85 95 1243.03 95 1244.02 95.1973C1249.34 95.5918 1254.67 96.3809 1259.6 97.5645C1262.56 98.3535 1265.52 99.1426 1268.28 100.129C1270.25 100.721 1272.03 101.51 1274 102.299C1275.38 102.891 1276.76 103.482 1278.14 104.074C1278.34 104.271 1278.54 104.271 1278.93 104.469C1288.01 108.809 1296.29 114.726 1303.39 121.828C1304.38 122.814 1305.37 123.801 1306.35 124.787C1306.94 125.576 1307.73 126.168 1308.32 126.957C1309.51 128.141 1310.49 129.521 1311.48 130.705C1315.23 135.439 1318.39 140.568 1321.15 145.894C1324.3 152.207 1326.87 158.914 1328.64 165.818C1330.02 172.92 1331.01 180.416 1331.01 188.109Z" fill="url(#paint33_radial_34_10)"/>
<path opacity="0.5" fill-rule="evenodd" clip-rule="evenodd" d="M1278.54 104.074C1278.14 104.074 1277.95 104.074 1277.55 104.272C1276.57 104.469 1275.58 104.272 1274.59 104.074C1273.8 103.877 1273.41 103.483 1272.42 103.483C1271.24 103.285 1270.25 102.891 1269.07 102.693C1267.89 102.496 1266.9 102.102 1265.72 101.707C1264.73 101.313 1264.33 101.51 1263.55 101.707C1262.76 101.904 1262.16 101.51 1261.38 101.313C1260.59 100.918 1259.6 100.918 1258.81 100.721C1256.44 100.326 1254.08 99.5372 1251.71 98.9454C1250.33 98.5509 1248.95 98.5509 1247.37 98.5509C1246.19 98.5509 1245.2 98.9454 1244.02 98.9454C1243.23 98.9454 1242.64 98.7482 1241.85 98.7482C1241.06 98.5509 1240.27 98.7482 1239.48 98.7482C1238.3 98.5509 1237.7 98.3537 1236.52 98.7482C1235.53 98.9455 1234.94 98.9455 1233.96 99.1427C1232.97 99.1427 1231.79 99.5372 1230.8 99.7345C1229.02 100.129 1227.05 100.524 1225.28 100.524C1224.09 100.524 1222.51 100.129 1221.53 100.524C1220.94 100.721 1220.54 101.51 1219.95 101.904C1218.96 102.891 1217.98 103.68 1217.19 104.666C1216.4 105.652 1215.61 106.836 1215.61 108.217C1215.61 109.4 1216.2 110.781 1216.79 111.768C1217.39 112.951 1217.58 113.938 1216.4 114.727C1215.02 115.713 1213.24 116.502 1211.67 117.094C1210.48 117.488 1209.5 117.686 1208.71 116.897C1208.31 116.699 1208.11 116.108 1207.72 115.713C1207.33 115.516 1206.73 115.713 1206.34 115.91C1205.16 116.305 1203.97 116.699 1202.79 116.897C1202 117.094 1201.41 117.488 1200.62 117.488C1199.83 117.686 1199.24 117.094 1198.25 117.291C1197.07 117.488 1195.69 118.08 1194.5 118.08C1193.52 118.08 1192.33 117.686 1191.54 117.291C1191.15 117.094 1190.95 116.699 1190.36 116.897C1189.97 116.897 1189.37 117.488 1189.18 117.883C1188.78 118.277 1188.78 118.869 1188.39 119.264C1187.99 119.856 1187.8 120.25 1187.4 120.842C1186.81 121.828 1186.22 122.815 1185.63 123.801C1185.23 124.393 1184.84 125.379 1184.25 125.971C1184.05 126.365 1183.46 126.563 1183.06 126.76C1182.08 127.352 1181.09 128.141 1180.1 128.732C1178.33 130.113 1176.55 131.691 1174.78 133.072C1173.4 134.059 1171.42 134.65 1169.84 135.439C1168.86 135.834 1167.87 136.229 1166.89 136.623C1166.49 136.82 1165.9 136.82 1165.7 137.215C1165.31 137.609 1165.11 138.004 1164.91 138.596C1164.12 139.582 1163.14 140.766 1162.55 141.949C1162.15 142.738 1161.95 143.33 1161.56 144.119C1161.17 145.105 1160.57 146.092 1160.38 147.275C1159.59 149.445 1159.59 151.812 1158.6 153.982C1158.21 155.166 1157.42 156.35 1156.83 157.533C1155.84 159.506 1155.64 161.873 1155.44 164.043C1155.25 165.226 1155.44 166.805 1155.64 167.988C1155.84 169.369 1155.84 170.75 1155.84 172.131C1155.84 173.512 1154.85 175.09 1154.06 176.076C1153.27 177.062 1151.89 177.457 1150.91 178.443C1150.12 179.232 1149.13 180.021 1148.74 181.205C1148.54 181.599 1148.74 182.191 1148.74 182.783C1148.54 183.967 1148.15 184.953 1148.15 186.137C1147.95 187.517 1147.95 188.898 1147.95 190.476C1147.95 191.265 1147.95 191.857 1147.95 192.646C1147.95 193.435 1148.15 194.027 1148.34 194.619C1148.34 195.014 1148.34 195.605 1148.34 196C1148.34 196.592 1148.74 197.183 1148.74 197.578C1149.13 198.959 1149.33 200.142 1149.53 201.523C1149.72 202.707 1150.32 203.89 1150.51 205.074C1151.1 206.652 1151.3 208.23 1151.7 210.006C1151.89 211.189 1151.89 212.57 1152.09 213.754C1152.29 214.74 1152.49 215.726 1152.49 216.713C1152.49 218.291 1152.09 219.672 1152.09 221.25C1152.09 223.814 1153.08 226.379 1153.67 228.943C1153.87 229.732 1154.06 230.324 1154.26 231.113C1147.75 218.488 1144.2 204.088 1144.2 188.898C1144.2 170.355 1149.53 153.193 1158.8 138.793C1162.74 132.678 1167.28 126.957 1172.61 122.025C1189.37 105.652 1212.45 95.5919 1237.7 95.5919C1239.68 95.5919 1241.85 95.5919 1243.82 95.7892C1256.05 95.5919 1267.89 98.9455 1278.54 104.074Z" fill="url(#paint34_linear_34_10)"/>
<path fill-rule="evenodd" clip-rule="evenodd" d="M1184.05 185.939C1214.23 190.673 1212.45 198.761 1247.57 189.095C1282.68 179.429 1307.93 126.76 1307.93 126.76C1307.93 126.76 1309.71 122.814 1308.13 120.447C1307.54 119.461 1303 121.433 1303 121.433C1303.79 138.398 1280.12 173.511 1253.29 183.572C1250.33 184.558 1247.57 184.953 1244.81 185.545C1243.62 184.953 1240.47 181.994 1255.06 172.131C1272.42 160.492 1280.12 156.152 1278.54 143.922C1276.96 131.691 1292.35 112.556 1292.35 112.556C1292.35 112.556 1293.53 107.428 1290.57 104.271C1286.82 100.129 1278.54 104.271 1278.54 104.271C1278.54 104.271 1276.37 128.14 1246.19 140.963C1216 153.785 1199.04 147.472 1187.6 143.922C1175.96 140.371 1172.61 121.236 1172.61 121.236C1172.61 121.236 1162.74 119.263 1159.19 125.379C1156.63 129.916 1160.38 135.636 1160.38 135.636C1160.38 135.636 1178.72 142.344 1195.09 148.656C1211.47 154.968 1243.03 149.248 1254.08 143.922C1265.32 138.595 1265.32 129.916 1274.2 122.025C1277.95 118.869 1281.69 116.502 1284.85 115.121C1284.85 115.121 1274.99 130.31 1276.17 140.963C1277.35 151.615 1270.65 151.22 1254.08 169.961C1242.44 182.98 1232.38 187.32 1227.45 188.504C1214.82 189.687 1203.18 188.306 1187.6 183.966C1162.15 177.062 1146.96 166.015 1146.96 166.015C1146.96 166.015 1144.79 165.029 1144 167.396C1143.61 168.382 1145.98 171.341 1145.98 171.341C1145.98 171.341 1153.87 181.007 1184.05 185.939Z" fill="url(#paint35_linear_34_10)"/>
<path fill-rule="evenodd" clip-rule="evenodd" d="M1205.35 275.498C1205.35 275.498 1197.86 270.763 1192.33 256.363C1186.81 241.963 1187.4 242.949 1176.95 233.875C1166.49 224.801 1148.34 215.924 1148.34 215.924C1148.34 215.924 1147.16 216.318 1147.16 216.713C1147.16 218.488 1149.33 218.883 1149.33 218.883C1149.33 218.883 1166.29 226.181 1176.95 237.82C1187.6 249.459 1199.04 270.369 1190.95 269.185C1190.95 269.185 1192.73 274.314 1197.07 275.498C1201.21 276.681 1205.35 275.498 1205.35 275.498Z" fill="url(#paint36_radial_34_10)"/>
<path d="M1279.72 205.863C1283.27 202.115 1287.41 197.183 1304.38 196.986C1321.34 196.789 1330.02 200.537 1330.02 200.537C1330.02 200.537 1333.57 199.551 1333.97 195.013C1334.36 190.476 1330.81 188.306 1330.81 188.306C1330.62 189.687 1328.84 199.156 1314.44 193.633C1314.44 193.435 1319.57 188.898 1320.56 179.43C1321.74 169.961 1325.09 156.35 1325.09 156.35C1325.09 156.35 1327.07 152.996 1325.88 150.234C1325.49 149.248 1322.13 148.853 1322.13 148.853C1325.09 167.988 1317.79 190.871 1309.9 193.633C1300.43 193.83 1288.8 195.408 1283.47 198.959C1276.96 203.299 1270.45 222.631 1266.31 236.242C1265.32 239.595 1263.15 243.343 1260.39 246.894C1249.93 249.459 1253.29 236.834 1248.75 233.086C1244.21 229.338 1235.73 231.31 1230.01 229.338C1224.49 227.168 1222.91 222.828 1216.99 222.039C1211.07 221.25 1201.6 232.494 1190.75 227.957C1179.91 223.42 1144 180.81 1144 180.81C1144 180.81 1140.85 180.021 1140.06 182.191C1139.47 183.967 1143.61 188.504 1143.61 188.504C1143.61 188.504 1168.66 226.181 1192.53 231.113C1216.4 236.045 1238.1 231.507 1245.59 237.82C1253.09 244.33 1253.68 254.588 1253.68 254.785C1245.99 263.07 1236.72 270.171 1232.38 272.341C1224.88 276.089 1212.65 278.654 1212.65 278.654C1214.43 280.626 1217.78 282.205 1221.33 283.191C1226.66 284.572 1230.01 282.007 1230.01 282.007C1230.01 282.007 1227.05 279.443 1231 276.089C1241.06 267.607 1248.36 264.056 1258.81 261.492C1265.12 259.914 1267.1 262.873 1267.89 261.886C1277.75 265.043 1285.44 257.744 1293.73 250.839C1302.01 244.132 1312.86 243.146 1312.86 243.146C1312.86 243.146 1318.39 242.16 1319.96 239.793C1321.34 237.623 1318.19 235.058 1318.19 235.058C1318.19 235.058 1313.45 237.031 1304.38 241.568C1295.5 246.105 1285.84 259.322 1274.79 258.927C1268.67 258.73 1270.06 252.615 1269.46 251.629C1269.46 251.234 1269.46 250.839 1269.46 250.248C1269.27 245.908 1268.28 241.765 1268.28 238.609C1268.28 237.82 1268.28 237.031 1268.48 236.242C1270.06 231.31 1276.17 209.414 1279.72 205.863ZM1260.59 246.697C1258.61 249.261 1256.44 251.826 1254.08 254.39L1260.59 246.697ZM1269.07 253.404C1269.27 254.39 1269.46 255.377 1269.27 256.56C1269.27 257.152 1269.07 257.546 1268.67 257.744C1268.28 257.941 1268.08 257.941 1267.69 257.941C1267.29 258.138 1266.7 258.138 1266.31 258.336C1265.52 258.533 1264.73 258.336 1264.14 258.336C1263.35 258.336 1262.56 258.336 1261.77 258.336C1261.38 258.336 1260.98 258.138 1260.59 258.138C1260.19 258.138 1259.6 258.138 1259.4 257.941C1258.61 257.546 1258.02 256.56 1257.43 256.363C1257.43 255.574 1257.43 254.982 1257.83 254.39C1257.83 254.193 1258.02 253.996 1258.02 253.601C1258.22 253.207 1258.22 252.812 1258.42 252.418C1258.81 251.431 1259.21 250.445 1260 249.656C1260.19 249.261 1260.59 248.67 1260.78 248.275C1261.18 247.683 1261.57 247.289 1261.97 246.894C1262.56 246.302 1263.15 245.711 1263.94 245.316C1264.53 244.922 1265.52 244.527 1266.31 244.724C1267.1 244.922 1267.29 245.908 1267.49 246.5C1267.69 246.894 1267.69 247.486 1267.89 247.88C1268.08 248.472 1268.28 249.064 1268.48 249.656C1268.67 250.445 1268.67 251.037 1268.87 251.826C1268.87 252.22 1268.87 252.812 1269.07 253.404Z" fill="url(#paint37_linear_34_10)"/>
<path fill-rule="evenodd" clip-rule="evenodd" d="M1162.55 123.209C1162.55 123.209 1166.69 131.889 1177.54 139.779C1177.54 139.779 1173.99 127.154 1171.42 122.026C1171.42 122.026 1167.87 118.672 1162.55 123.209Z" fill="#FFFF0E"/>
<path fill-rule="evenodd" clip-rule="evenodd" d="M1219.56 149.84C1219.56 149.84 1226.85 146.881 1229.22 148.064C1229.22 147.867 1222.12 149.84 1219.56 149.84Z" fill="#FFFF0E"/>
<path fill-rule="evenodd" clip-rule="evenodd" d="M1244.21 142.936C1245.6 142.541 1246.98 142.146 1248.16 141.555C1249.34 141.16 1250.33 140.568 1251.51 139.977C1252.89 139.187 1254.28 138.398 1255.46 137.412C1255.85 137.215 1256.05 137.018 1256.45 136.82C1256.84 136.623 1257.23 136.229 1257.63 136.031C1258.02 135.834 1258.22 135.439 1258.61 135.242C1259.01 135.045 1259.21 134.65 1259.6 134.453C1260.19 134.059 1260.78 133.467 1261.18 133.072C1261.38 132.875 1261.57 132.678 1261.97 132.283C1262.17 132.086 1262.36 132.086 1262.56 132.086C1262.56 132.283 1262.36 132.678 1262.36 132.875C1262.17 133.27 1261.97 133.467 1261.77 133.861C1261.38 134.65 1260.59 135.045 1260 135.834C1259.6 136.229 1259.21 136.623 1258.61 137.018C1258.02 137.412 1257.23 137.807 1256.45 138.201C1255.66 138.596 1254.87 138.793 1254.28 139.187C1253.68 139.582 1252.89 139.977 1252.3 140.174C1251.91 140.371 1251.32 140.766 1250.92 140.963C1250.53 141.16 1250.13 141.357 1249.74 141.555C1249.15 141.949 1248.55 142.146 1247.96 142.541C1247.57 142.738 1247.37 142.738 1246.98 142.936C1246.38 143.33 1245.4 143.527 1244.61 143.527C1244.41 143.527 1244.02 143.527 1243.82 143.527C1243.62 143.527 1243.43 143.33 1243.43 143.33C1243.82 143.133 1244.02 142.936 1244.21 142.936Z" fill="#FFFF0E"/>
<path fill-rule="evenodd" clip-rule="evenodd" d="M1239.48 183.769C1238.69 184.361 1237.7 184.953 1236.72 185.545C1235.53 186.136 1234.35 186.531 1233.36 187.123C1231.59 188.109 1229.81 188.898 1228.04 189.687C1227.84 189.885 1225.08 190.871 1226.07 191.463C1226.46 191.66 1227.05 191.66 1227.45 191.66C1227.84 191.66 1228.24 191.857 1228.63 191.857C1229.02 191.857 1229.42 191.857 1229.81 191.857C1231.98 191.857 1234.35 191.265 1236.32 190.476C1236.72 190.279 1237.31 190.082 1237.7 189.884C1237.9 189.687 1238.1 189.49 1238.49 189.293C1238.89 188.898 1239.28 188.504 1239.48 187.912C1239.87 187.123 1240.07 186.531 1240.07 185.545C1240.07 185.15 1239.87 184.953 1239.68 184.558C1239.68 184.361 1239.48 184.164 1239.48 183.769Z" fill="#FFFF0E"/>
<path fill-rule="evenodd" clip-rule="evenodd" d="M1224.09 190.476C1223.7 190.279 1223.11 189.885 1222.51 189.885C1222.32 189.885 1222.12 189.885 1221.92 189.885C1221.53 189.885 1220.94 190.082 1220.54 190.279C1220.15 190.674 1221.13 191.068 1221.53 191.266C1221.92 191.463 1222.71 191.463 1223.11 191.266C1223.5 191.266 1224.09 190.871 1224.09 190.476C1224.29 190.476 1224.29 190.476 1224.29 190.476H1224.09Z" fill="#FFFF0E"/>
<path fill-rule="evenodd" clip-rule="evenodd" d="M1252.7 184.361C1254.67 183.769 1256.64 182.98 1258.42 181.994C1259.21 181.599 1259.8 181.205 1260.59 180.81C1260.98 180.613 1261.57 180.218 1261.97 180.021C1262.17 180.021 1263.35 179.232 1263.55 179.627C1263.74 180.021 1262.56 180.81 1262.36 181.008C1261.97 181.402 1261.38 181.797 1260.78 182.191C1260.39 182.586 1259.8 182.586 1259.4 182.98C1258.81 183.375 1258.22 183.572 1257.43 183.967C1257.04 184.164 1256.44 184.361 1256.05 184.558C1255.66 184.756 1255.26 184.756 1254.87 184.953C1254.67 184.953 1254.27 184.953 1254.08 184.953C1253.68 184.756 1252.89 184.953 1252.7 184.361Z" fill="#FFFF0E"/>
<path fill-rule="evenodd" clip-rule="evenodd" d="M1146.96 169.369C1147.95 170.552 1148.54 171.736 1149.72 172.328C1150.51 172.722 1151.11 173.314 1151.89 173.511C1152.68 173.709 1153.67 173.906 1154.46 173.906C1154.85 173.906 1155.05 173.906 1155.05 173.314C1155.05 173.117 1154.85 172.722 1154.66 172.525C1154.46 172.131 1154.06 171.933 1153.67 171.539C1153.27 171.144 1153.08 170.75 1152.68 170.355C1151.3 169.172 1149.92 168.383 1148.15 167.791C1147.55 167.593 1147.55 167.593 1146.96 167.791C1146.57 167.988 1146.57 167.988 1146.37 168.383C1146.37 168.974 1146.77 169.566 1147.16 170.158L1146.96 169.369Z" fill="#FFFF0E"/>
<path fill-rule="evenodd" clip-rule="evenodd" d="M1147.75 187.715C1149.13 190.082 1150.91 192.055 1152.68 194.225C1153.87 195.606 1154.66 197.578 1156.04 198.959C1156.23 199.156 1158.8 201.326 1158.8 200.143C1158.8 199.945 1158.01 198.762 1158.01 198.565C1157.61 197.973 1157.22 197.184 1156.63 196.592C1156.23 196 1155.64 195.606 1155.45 195.014C1155.05 194.422 1154.66 194.027 1154.26 193.436C1153.67 192.844 1153.28 191.858 1152.88 191.266C1152.49 190.674 1151.89 189.885 1151.5 189.293C1150.91 188.307 1150.12 187.32 1149.13 186.926C1148.94 186.729 1148.54 186.531 1148.15 186.729C1147.16 187.32 1147.55 188.504 1147.75 187.715Z" fill="#FFFF0E"/>
<path fill-rule="evenodd" clip-rule="evenodd" d="M1237.7 231.705C1239.87 231.31 1241.45 230.916 1243.62 231.508C1244.61 231.705 1245.59 232.099 1246.58 232.297C1247.17 232.494 1248.16 232.691 1248.55 233.086C1248.95 233.677 1248.95 234.467 1248.36 234.861C1247.76 235.453 1246.38 235.256 1245.59 235.256C1244.02 235.058 1242.64 234.861 1241.06 234.467C1240.27 234.269 1239.09 233.875 1238.3 233.283C1238.1 233.086 1237.31 232.297 1237.7 231.705Z" fill="#FFFF0E"/>
<path fill-rule="evenodd" clip-rule="evenodd" d="M1180.1 238.806C1180.89 240.581 1181.68 242.357 1182.86 243.935C1183.46 244.724 1183.85 245.316 1184.64 245.71C1185.23 245.908 1185.82 246.105 1185.82 245.119C1185.82 244.724 1185.43 243.935 1185.23 243.54C1184.44 242.16 1183.46 241.173 1182.67 239.99C1182.27 239.595 1181.88 238.806 1181.48 238.609C1180.89 238.412 1179.91 238.017 1180.1 238.806Z" fill="#FFFF0E"/>
<path fill-rule="evenodd" clip-rule="evenodd" d="M1216.6 278.654C1218.77 278.259 1220.54 277.47 1222.52 276.878C1223.3 276.484 1224.09 276.484 1225.08 276.484L1225.28 276.286C1225.47 276.286 1225.87 276.286 1226.07 276.286C1226.26 276.286 1227.25 276.089 1227.45 276.286C1228.24 276.878 1226.66 278.456 1226.26 278.654C1224.88 280.034 1222.71 280.823 1220.54 280.626C1219.56 280.429 1218.57 280.034 1217.58 279.837C1216.99 279.837 1215.61 279.443 1215.61 278.654C1215.81 278.851 1215.81 278.654 1216.6 278.654Z" fill="#FFFF0E"/>
<path fill-rule="evenodd" clip-rule="evenodd" d="M1252.89 257.547C1251.12 258.73 1248.95 259.914 1247.57 261.887C1246.58 263.267 1248.36 262.873 1249.15 262.676C1249.74 262.478 1250.33 262.281 1250.72 261.887C1251.12 261.492 1251.51 261.295 1251.91 260.703C1252.3 260.308 1252.5 260.111 1252.89 259.914C1253.09 259.519 1253.29 258.928 1253.68 258.73C1253.68 258.533 1253.49 258.533 1253.49 258.336L1252.89 257.547Z" fill="#FFFF0E"/>
<path fill-rule="evenodd" clip-rule="evenodd" d="M1202 228.943C1203.38 228.351 1204.76 227.957 1205.94 227.168C1207.13 226.576 1208.31 225.787 1209.5 225.195C1211.07 224.406 1212.65 223.42 1214.43 223.222C1215.02 223.222 1215.61 222.828 1216.2 223.222C1216.79 223.42 1216.99 223.617 1217.39 224.011C1218.37 225.392 1216.4 226.576 1215.41 227.168C1214.62 227.759 1214.03 228.351 1213.05 228.746C1212.06 229.14 1211.07 229.338 1210.09 229.732C1208.51 230.324 1206.73 231.113 1204.96 231.31C1203.97 231.507 1203.18 231.113 1202.39 230.521C1202 230.324 1201.6 229.929 1201.41 229.535C1201.21 229.338 1201.01 228.943 1202 228.943Z" fill="#FFFF0E"/>
</g>
<defs>
<radialGradient id="paint0_radial_34_10" cx="0" cy="0" r="1" gradientUnits="userSpaceOnUse" gradientTransform="translate(1020.06 -126.432) rotate(56.512) scale(761.411 954.543)">
<stop stop-color="#890048"/>
<stop offset="0.5056" stop-color="#540048"/>
<stop offset="1" stop-color="#000027"/>
</radialGradient>
<radialGradient id="paint1_radial_34_10" cx="0" cy="0" r="1" gradientUnits="userSpaceOnUse" gradientTransform="translate(849.727 -30.1428) scale(150.117 150.117)">
<stop offset="0.00558659" stop-color="#FFB80B"/>
<stop offset="0.258" stop-color="#FFB60C"/>
<stop offset="0.384" stop-color="#FEAE10"/>
<stop offset="0.4821" stop-color="#FCA117"/>
<stop offset="0.5656" stop-color="#FA8E21"/>
<stop offset="0.6392" stop-color="#F7762E"/>
<stop offset="0.662" stop-color="#F66D33"/>
<stop offset="0.7209" stop-color="#EF6836"/>
<stop offset="0.8061" stop-color="#DC593D"/>
<stop offset="0.9068" stop-color="#BD4049"/>
<stop offset="0.9832" stop-color="#A02A54"/>
</radialGradient>
<linearGradient id="paint2_linear_34_10" x1="821.98" y1="41.0575" x2="867.228" y2="41.0575" gradientUnits="userSpaceOnUse">
<stop offset="0.0111732" stop-color="#FFA90B"/>
<stop offset="0.3713" stop-color="#FFA60E"/>
<stop offset="0.6354" stop-color="#FF9D16"/>
<stop offset="0.868" stop-color="#FF8D25"/>
<stop offset="1" stop-color="#FF8031"/>
</linearGradient>
<linearGradient id="paint3_linear_34_10" x1="823.576" y1="41.0575" x2="864.838" y2="41.0575" gradientUnits="userSpaceOnUse">
<stop offset="0.0111732" stop-color="#FFE00B"/>
<stop offset="0.3061" stop-color="#FFDD0D"/>
<stop offset="0.5224" stop-color="#FFD412"/>
<stop offset="0.7136" stop-color="#FFC41B"/>
<stop offset="0.8891" stop-color="#FFAD27"/>
<stop offset="1" stop-color="#FF9B31"/>
</linearGradient>
<linearGradient id="paint4_linear_34_10" x1="828.111" y1="-12.9417" x2="846.127" y2="-13.5131" gradientUnits="userSpaceOnUse">
<stop offset="0.0111732" stop-color="#FFA90B"/>
<stop offset="0.3713" stop-color="#FFA60E"/>
<stop offset="0.6354" stop-color="#FF9D16"/>
<stop offset="0.868" stop-color="#FF8D25"/>
<stop offset="1" stop-color="#FF8031"/>
</linearGradient>
<linearGradient id="paint5_linear_34_10" x1="976.989" y1="73.1073" x2="976.989" y2="8.99959" gradientUnits="userSpaceOnUse">
<stop offset="0.0111732" stop-color="#FF8E0B"/>
<stop offset="0.3475" stop-color="#FD8B0D"/>
<stop offset="0.5941" stop-color="#F98215"/>
<stop offset="0.8113" stop-color="#F17221"/>
<stop offset="1" stop-color="#E65D31"/>
</linearGradient>
<linearGradient id="paint6_linear_34_10" x1="958.103" y1="41.0531" x2="995.835" y2="41.0531" gradientUnits="userSpaceOnUse">
<stop offset="0.0111732" stop-color="#FFE00B"/>
<stop offset="0.3061" stop-color="#FFDD0D"/>
<stop offset="0.5224" stop-color="#FFD412"/>
<stop offset="0.7136" stop-color="#FFC41B"/>
<stop offset="0.8891" stop-color="#FFAD27"/>
<stop offset="1" stop-color="#FF9B31"/>
</linearGradient>
<linearGradient id="paint7_linear_34_10" x1="989.054" y1="7.50595" x2="989.054" y2="-17.2359" gradientUnits="userSpaceOnUse">
<stop offset="0.0111732" stop-color="#FFA90B"/>
<stop offset="0.3713" stop-color="#FFA60E"/>
<stop offset="0.6354" stop-color="#FF9D16"/>
<stop offset="0.868" stop-color="#FF8D25"/>
<stop offset="1" stop-color="#FF8031"/>
</linearGradient>
<linearGradient id="paint8_linear_34_10" x1="989.041" y1="5.88444" x2="989.041" y2="-15.6142" gradientUnits="userSpaceOnUse">
<stop offset="0.0111732" stop-color="#FFE00B"/>
<stop offset="0.3061" stop-color="#FFDD0D"/>
<stop offset="0.5224" stop-color="#FFD412"/>
<stop offset="0.7136" stop-color="#FFC41B"/>
<stop offset="0.8891" stop-color="#FFAD27"/>
<stop offset="1" stop-color="#FF9B31"/>
</linearGradient>
<linearGradient id="paint9_linear_34_10" x1="912.184" y1="105.823" x2="912.184" y2="91.41" gradientUnits="userSpaceOnUse">
<stop offset="0.0111732" stop-color="#FFA90B"/>
<stop offset="0.3713" stop-color="#FFA60E"/>
<stop offset="0.6354" stop-color="#FF9D16"/>
<stop offset="0.868" stop-color="#FF8D25"/>
<stop offset="1" stop-color="#FF8031"/>
</linearGradient>
<linearGradient id="paint10_linear_34_10" x1="912.182" y1="104.202" x2="912.182" y2="93.031" gradientUnits="userSpaceOnUse">
<stop offset="0.0111732" stop-color="#FFE00B"/>
<stop offset="0.3061" stop-color="#FFDD0D"/>
<stop offset="0.5224" stop-color="#FFD412"/>
<stop offset="0.7136" stop-color="#FFC41B"/>
<stop offset="0.8891" stop-color="#FFAD27"/>
<stop offset="1" stop-color="#FF9B31"/>
</linearGradient>
<linearGradient id="paint11_linear_34_10" x1="957.37" y1="14.9005" x2="965.455" y2="-45.9984" gradientUnits="userSpaceOnUse">
<stop offset="0.0111732" stop-color="#FFA90B"/>
<stop offset="0.3713" stop-color="#FFA60E"/>
<stop offset="0.6354" stop-color="#FF9D16"/>
<stop offset="0.868" stop-color="#FF8D25"/>
<stop offset="1" stop-color="#FF8031"/>
</linearGradient>
<linearGradient id="paint12_linear_34_10" x1="957.579" y1="13.2952" x2="965.237" y2="-44.3925" gradientUnits="userSpaceOnUse">
<stop offset="0.0111732" stop-color="#FFE00B"/>
<stop offset="0.3061" stop-color="#FFDD0D"/>
<stop offset="0.5224" stop-color="#FFD412"/>
<stop offset="0.7136" stop-color="#FFC41B"/>
<stop offset="0.8891" stop-color="#FFAD27"/>
<stop offset="1" stop-color="#FF9B31"/>
</linearGradient>
<linearGradient id="paint13_linear_34_10" x1="814.155" y1="7.05996" x2="957.885" y2="7.05996" gradientUnits="userSpaceOnUse">
<stop offset="0.0111732" stop-color="#FFE00B"/>
<stop offset="0.3061" stop-color="#FFDD0D"/>
<stop offset="0.5224" stop-color="#FFD412"/>
<stop offset="0.7136" stop-color="#F67C27"/>
<stop offset="0.8891" stop-color="#ED6930"/>
<stop offset="1" stop-color="#E76332"/>
</linearGradient>
<linearGradient id="paint14_linear_34_10" x1="814.155" y1="-12.0748" x2="948.585" y2="-12.0748" gradientUnits="userSpaceOnUse">
<stop offset="0.0111732" stop-color="#FFE00B"/>
<stop offset="0.3061" stop-color="#FFDD0D"/>
<stop offset="0.5224" stop-color="#FFD412"/>
<stop offset="0.7136" stop-color="#FFC41B"/>
<stop offset="0.8891" stop-color="#FFAD27"/>
<stop offset="1" stop-color="#FF9B31"/>
</linearGradient>
<linearGradient id="paint15_linear_34_10" x1="938.732" y1="86.9697" x2="963.383" y2="86.9697" gradientUnits="userSpaceOnUse">
<stop offset="0.0111732" stop-color="#FFE00B"/>
<stop offset="0.3061" stop-color="#FFDD0D"/>
<stop offset="0.5224" stop-color="#FFD412"/>
<stop offset="0.7136" stop-color="#FFC41B"/>
<stop offset="0.8891" stop-color="#FFAD27"/>
<stop offset="1" stop-color="#FF9B31"/>
</linearGradient>
<linearGradient id="paint16_linear_34_10" x1="795.437" y1="345.743" x2="795.437" y2="318.32" gradientUnits="userSpaceOnUse">
<stop stop-color="#9A00B3"/>
<stop offset="1" stop-color="#7F72FF"/>
</linearGradient>
<linearGradient id="paint17_linear_34_10" x1="789.368" y1="347.132" x2="799.672" y2="315.674" gradientUnits="userSpaceOnUse">
<stop stop-color="#5B008B"/>
<stop offset="1" stop-color="#8E00FF"/>
</linearGradient>
<radialGradient id="paint18_radial_34_10" cx="0" cy="0" r="1" gradientUnits="userSpaceOnUse" gradientTransform="translate(798.997 351.19) scale(127.195 127.195)">
<stop offset="0.00558659" stop-color="#60DBFF"/>
<stop offset="0.0937306" stop-color="#60D5FF"/>
<stop offset="0.211" stop-color="#5FC4FF"/>
<stop offset="0.3446" stop-color="#5DA9FF"/>
<stop offset="0.4903" stop-color="#5A82FF"/>
<stop offset="0.6442" stop-color="#5751FF"/>
<stop offset="0.6844" stop-color="#5643FF"/>
<stop offset="0.7432" stop-color="#563DF8"/>
<stop offset="0.8282" stop-color="#552EE5"/>
<stop offset="0.9287" stop-color="#5315C6"/>
<stop offset="1" stop-color="#5200AB"/>
</radialGradient>
<linearGradient id="paint19_linear_34_10" x1="768.853" y1="366.503" x2="882.757" y2="366.503" gradientUnits="userSpaceOnUse">
<stop offset="0.0111732" stop-color="#81E0FF"/>
<stop offset="0.3224" stop-color="#82DDFF"/>
<stop offset="0.5506" stop-color="#86D4FF"/>
<stop offset="0.7523" stop-color="#8BC4FF"/>
<stop offset="0.9375" stop-color="#94ADFF"/>
<stop offset="1" stop-color="#97A4FF"/>
</linearGradient>
<linearGradient id="paint20_linear_34_10" x1="769.577" y1="344.09" x2="869.159" y2="344.09" gradientUnits="userSpaceOnUse">
<stop stop-color="#B8C2FF"/>
<stop offset="1" stop-color="#7D72B3"/>
</linearGradient>
<linearGradient id="paint21_linear_34_10" x1="785.737" y1="418.214" x2="927.219" y2="418.214" gradientUnits="userSpaceOnUse">
<stop stop-color="#B8C2FF"/>
<stop offset="1" stop-color="#7D72B3"/>
</linearGradient>
<linearGradient id="paint22_linear_34_10" x1="777.381" y1="388.949" x2="918.579" y2="388.949" gradientUnits="userSpaceOnUse">
<stop stop-color="#B8C2FF"/>
<stop offset="1" stop-color="#7D72B3"/>
</linearGradient>
<linearGradient id="paint23_linear_34_10" x1="768.856" y1="369.217" x2="907.648" y2="369.217" gradientUnits="userSpaceOnUse">
<stop stop-color="#B8C2FF"/>
<stop offset="1" stop-color="#7D72B3"/>
</linearGradient>
<linearGradient id="paint24_linear_34_10" x1="871.964" y1="359.801" x2="873.869" y2="359.801" gradientUnits="userSpaceOnUse">
<stop stop-color="#E8DDFF"/>
<stop offset="1" stop-color="#AA8AD8"/>
</linearGradient>
<linearGradient id="paint25_linear_34_10" x1="855.901" y1="399.682" x2="862.675" y2="379" gradientUnits="userSpaceOnUse">
<stop stop-color="#5B008B"/>
<stop offset="1" stop-color="#8E00FF"/>
</linearGradient>
<linearGradient id="paint26_linear_34_10" x1="863.216" y1="324.742" x2="914.036" y2="324.742" gradientUnits="userSpaceOnUse">
<stop stop-color="#7F72FF"/>
<stop offset="1" stop-color="#9A00B3"/>
</linearGradient>
<linearGradient id="paint27_linear_34_10" x1="874.76" y1="446.737" x2="900.539" y2="368.038" gradientUnits="userSpaceOnUse">
<stop stop-color="#280077"/>
<stop offset="1" stop-color="#812CFF"/>
</linearGradient>
<linearGradient id="paint28_linear_34_10" x1="882.14" y1="445.135" x2="906.731" y2="370.066" gradientUnits="userSpaceOnUse">
<stop stop-color="#7A00B3"/>
<stop offset="1" stop-color="#B136FF"/>
</linearGradient>
<linearGradient id="paint29_linear_34_10" x1="890.611" y1="423.6" x2="890.611" y2="369.224" gradientUnits="userSpaceOnUse">
<stop stop-color="#8E00B3"/>
<stop offset="1" stop-color="#E05CFF"/>
</linearGradient>
<linearGradient id="paint30_linear_34_10" x1="857.977" y1="396.164" x2="863.58" y2="379.058" gradientUnits="userSpaceOnUse">
<stop stop-color="#A400CA"/>
<stop offset="1" stop-color="#B136FF"/>
</linearGradient>
<linearGradient id="paint31_linear_34_10" x1="886.066" y1="335.295" x2="894.153" y2="310.608" gradientUnits="userSpaceOnUse">
<stop stop-color="#5B008B"/>
<stop offset="1" stop-color="#8E00FF"/>
</linearGradient>
<linearGradient id="paint32_linear_34_10" x1="895.259" y1="332.879" x2="895.259" y2="306.405" gradientUnits="userSpaceOnUse">
<stop stop-color="#B000D9"/>
<stop offset="1" stop-color="#E05CFF"/>
</linearGradient>
<radialGradient id="paint33_radial_34_10" cx="0" cy="0" r="1" gradientUnits="userSpaceOnUse" gradientTransform="translate(1179.65 144.415) scale(150.122 150.122)">
<stop offset="0.00558659" stop-color="#9D9D94"/>
<stop offset="0.2018" stop-color="#DFD2C1"/>
<stop offset="0.3542" stop-color="#C2B5A2"/>
<stop offset="0.4919" stop-color="#D5C8B5"/>
<stop offset="0.6209" stop-color="#A09277"/>
<stop offset="0.7437" stop-color="#847B60"/>
<stop offset="0.8606" stop-color="#736950"/>
<stop offset="0.942708" stop-color="#A09277"/>
</radialGradient>
<linearGradient id="paint34_linear_34_10" x1="1144.07" y1="162.488" x2="1278.5" y2="162.488" gradientUnits="userSpaceOnUse">
<stop offset="0.0111732" stop-color="#D7CAB7"/>
<stop offset="0.2983" stop-color="#E1DAC0"/>
<stop offset="0.695" stop-color="#EDE0CE"/>
<stop offset="0.8659" stop-color="#C3B6A2"/>
<stop offset="1" stop-color="#9A968B"/>
</linearGradient>
<linearGradient id="paint35_linear_34_10" x1="1143.64" y1="147.891" x2="1308.75" y2="147.891" gradientUnits="userSpaceOnUse">
<stop offset="0.00558659" stop-color="#FFB80B"/>
<stop offset="0.388" stop-color="#FFB60C"/>
<stop offset="0.5789" stop-color="#FEAE10"/>
<stop offset="0.7274" stop-color="#FCA117"/>
<stop offset="0.8539" stop-color="#FA8E21"/>
<stop offset="0.9655" stop-color="#F7762E"/>
<stop offset="1" stop-color="#F66D33"/>
</linearGradient>
<radialGradient id="paint36_radial_34_10" cx="0" cy="0" r="1" gradientUnits="userSpaceOnUse" gradientTransform="translate(1158.14 231.857) scale(47.4671 47.4671)">
<stop offset="0.00558659" stop-color="#FFB80B"/>
<stop offset="0.388" stop-color="#FFB60C"/>
<stop offset="0.5789" stop-color="#FEAE10"/>
<stop offset="0.7274" stop-color="#FCA117"/>
<stop offset="0.8539" stop-color="#FA8E21"/>
<stop offset="0.9655" stop-color="#F7762E"/>
<stop offset="1" stop-color="#F66D33"/>
</radialGradient>
<linearGradient id="paint37_linear_34_10" x1="1140.46" y1="216.024" x2="1334.05" y2="216.024" gradientUnits="userSpaceOnUse">
<stop offset="0.00558659" stop-color="#FFB80B"/>
<stop offset="0.388" stop-color="#FFB60C"/>
<stop offset="0.5789" stop-color="#FEAE10"/>
<stop offset="0.7274" stop-color="#FCA117"/>
<stop offset="0.8539" stop-color="#FA8E21"/>
<stop offset="0.9655" stop-color="#F7762E"/>
<stop offset="1" stop-color="#F66D33"/>
</linearGradient>
</defs>
</svg>
