<svg width="67" height="48" viewBox="0 0 67 48" fill="none" xmlns="http://www.w3.org/2000/svg">
<path d="M6 47.8595H9.79195V35.1405H6V47.8595Z" fill="black"/>
<path d="M12.5673 47.8595H16.3593V44.6622H23.8919C26.5736 44.6622 27.3764 42.4838 27.3764 40.5865V39.4973C27.3764 37.0027 26.5053 35.1405 22.9012 35.1405H12.5673V47.8595ZM16.3593 38.3027H21.9276C23.072 38.3027 23.482 38.7946 23.482 39.6554V40.1473C23.482 40.9027 23.1404 41.5 22.2521 41.5H16.3593V38.3027Z" fill="black"/>
<path d="M28.526 38.3027H33.8552V47.8595H37.6472V38.3027H42.9764V35.1405H28.526V38.3027Z" fill="black"/>
<path d="M44.4052 44.5743C44.4052 47.3324 45.7887 48 49.2391 48H53.8338C58.8727 48 60 47.4378 60 44.0122C60 40.3054 58.6335 39.9365 52.7406 39.9541C48.6754 39.9716 48.2142 39.9365 48.2142 38.8297C48.2142 38.1446 48.795 37.8459 49.649 37.8459H53.8509C55.5931 37.8459 55.6956 38.2324 55.6956 39.1635H59.4876V38.7595C59.4876 36.5284 59.0776 35 54.7049 35H49.4099C44.6272 35 44.4223 36.7743 44.4223 39.0757C44.4223 42.2027 45.0713 42.9054 50.7763 42.9054C55.6615 42.9054 56.1056 42.9757 56.1056 44.0824C56.1056 45.0662 55.2857 45.1541 54.4829 45.1541H49.8369C48.7437 45.1541 48.2142 45.0486 48.1971 43.6959H44.4052V44.5743Z" fill="black"/>
<path fill-rule="evenodd" clip-rule="evenodd" d="M0 15C0 6.81173 14.6529 0.155855 32.8582 0.00269742V0H34.2273V0.00346541C52.393 0.176721 67 6.82456 67 15C67 23.2843 52.0015 30 33.5 30C14.9985 30 0 23.2843 0 15ZM63.3756 19.8878C64.6865 18.5001 65.4089 17.0881 65.587 15.6897H56.0238C55.8837 17.7506 55.1183 19.7032 53.851 21.4655L61.6071 21.4655C62.2765 20.9533 62.8673 20.426 63.3756 19.8878ZM59.5516 22.8448H52.7216C50.9836 24.7256 48.6393 26.3319 45.8699 27.5431C49.9516 26.7997 53.6037 25.7021 56.632 24.3462C57.6911 23.872 58.666 23.3697 59.5516 22.8448ZM52.1102 21.4655C53.6114 19.6946 54.4887 17.7263 54.6507 15.6897H44.826C44.7555 17.7506 44.3707 19.7032 43.7334 21.4655H52.1102ZM43.1655 22.8448L50.77 22.8448C50.145 23.4105 49.4501 23.9492 48.6889 24.4556C46.066 26.2005 42.7198 27.5102 38.9431 28.1616C40.6758 26.9046 42.1333 25.0662 43.1655 22.8448ZM42.2677 21.4655C42.9545 19.7401 43.3792 17.7829 43.4561 15.6897H34.2273V21.4655H42.2677ZM34.2273 22.8448H41.638C41.2777 23.5387 40.8719 24.1834 40.4278 24.771C38.7473 26.9943 36.5666 28.3506 34.2273 28.5844V22.8448ZM32.8582 21.4655V15.6897H23.5439C23.6208 17.7829 24.0455 19.7401 24.7323 21.4655L32.8582 21.4655ZM25.362 22.8448H32.8582V28.5925C30.4866 28.3835 28.2732 27.0214 26.5722 24.771C26.1281 24.1834 25.7223 23.5387 25.362 22.8448ZM23.2666 21.4655C22.6293 19.7032 22.2445 17.7506 22.174 15.6897H12.3492C12.5113 17.7263 13.3886 19.6946 14.8898 21.4655H23.2666ZM16.23 22.8448L23.8345 22.8448C24.8667 25.0662 26.3242 26.9046 28.0569 28.1616C24.2802 27.5102 20.934 26.2005 18.3111 24.4556C17.5499 23.9492 16.855 23.4105 16.23 22.8448ZM13.149 21.4655C11.8817 19.7032 11.1163 17.7506 10.9762 15.6897H1.413C1.5911 17.0881 2.31354 18.5001 3.62436 19.8878C4.13271 20.426 4.72351 20.9533 5.39285 21.4655L13.149 21.4655ZM7.4484 22.8448H14.2783C16.0164 24.7256 18.3607 26.3319 21.1301 27.5431C17.0484 26.7997 13.3963 25.7021 10.368 24.3462C9.30888 23.872 8.334 23.3697 7.4484 22.8448ZM63.3756 10.1122C64.6865 11.4999 65.4089 12.9119 65.587 14.3103H56.0238C55.8837 12.2494 55.1183 10.2968 53.851 8.53449H61.6072C62.2765 9.04674 62.8673 9.57405 63.3756 10.1122ZM59.5516 7.15518C58.666 6.63032 57.6911 6.12805 56.632 5.65383C53.6037 4.29786 49.9516 3.20025 45.8699 2.45691C48.6393 3.66814 50.9836 5.27439 52.7217 7.15518L59.5516 7.15518ZM50.77 7.15518C50.145 6.58946 49.4501 6.05083 48.6889 5.5444C46.066 3.7995 42.7198 2.48975 38.9431 1.83843C40.6758 3.09537 42.1333 4.93378 43.1655 7.15518L50.77 7.15518ZM43.7334 8.53449C44.3707 10.2968 44.7555 12.2494 44.826 14.3103H54.6507C54.4887 12.2737 53.6114 10.3054 52.1102 8.53449L43.7334 8.53449ZM42.2677 8.53449C42.9545 10.2599 43.3792 12.2171 43.4561 14.3103H34.2273V8.53449H42.2677ZM23.5439 14.3103H32.8582V8.53449L24.7323 8.53448C24.0455 10.2599 23.6208 12.2171 23.5439 14.3103ZM41.6381 7.15518L34.2273 7.15518V1.41557C36.5666 1.64943 38.7473 3.0057 40.4278 5.22903C40.8719 5.81658 41.2777 6.46127 41.6381 7.15518ZM32.8582 7.15518V1.40752C30.4866 1.61652 28.2732 2.97861 26.5722 5.22903C26.1281 5.81658 25.7223 6.46127 25.3619 7.15517L32.8582 7.15518ZM23.8345 7.15517C24.8667 4.93378 26.3242 3.09537 28.0569 1.83844C24.2802 2.48975 20.934 3.7995 18.3111 5.5444C17.5499 6.05082 16.855 6.58946 16.23 7.15517L23.8345 7.15517ZM14.8898 8.53448C13.3886 10.3054 12.5113 12.2737 12.3492 14.3103H22.174C22.2445 12.2494 22.6293 10.2968 23.2666 8.53448L14.8898 8.53448ZM13.149 8.53448C11.8817 10.2968 11.1163 12.2494 10.9762 14.3103H1.413C1.5911 12.9119 2.31354 11.4999 3.62436 10.1122C4.13271 9.57405 4.72351 9.04674 5.39285 8.53448L13.149 8.53448ZM14.2783 7.15517C16.0164 5.27438 18.3607 3.66814 21.1301 2.45691C17.0484 3.20025 13.3963 4.29786 10.368 5.65383C9.30888 6.12805 8.334 6.63032 7.4484 7.15517L14.2783 7.15517Z" fill="black"/>
</svg>
